<svg preserveAspectRatio="none" width="100%" height="100%" overflow="visible" style="display: block;" viewBox="0 0 12.4444 14" fill="none" xmlns="http://www.w3.org/2000/svg">
<g id="Group">
<g id="Vector">
<path d="M5.54512 1.12407C5.54518 1.02117 5.56255 0.919299 5.59624 0.824264C5.62993 0.729228 5.67928 0.642892 5.74148 0.570183C5.80367 0.497475 5.8775 0.439818 5.95873 0.400506C6.03996 0.361193 6.127 0.340995 6.2149 0.341063C6.3028 0.341132 6.38983 0.361466 6.47101 0.400905C6.5522 0.440344 6.62595 0.498117 6.68806 0.570922C6.75018 0.643728 6.79943 0.730141 6.83301 0.825229C6.8666 0.920317 6.88385 1.02222 6.88379 1.12511L5.54512 1.12407ZM6.88335 7.54793C6.88335 7.75573 6.81283 7.95503 6.6873 8.10197C6.56178 8.24891 6.39153 8.33146 6.21401 8.33146C6.03649 8.33146 5.86624 8.24891 5.74072 8.10197C5.61519 7.95503 5.54467 7.75573 5.54467 7.54793H6.88335ZM5.54467 7.55759C5.54467 7.34979 5.61519 7.1505 5.74072 7.00356C5.86624 6.85662 6.03649 6.77407 6.21401 6.77407C6.39153 6.77407 6.56178 6.85662 6.6873 7.00356C6.81283 7.1505 6.88335 7.34979 6.88335 7.55759H5.54467ZM6.88335 13.2165C6.88335 13.4243 6.81283 13.6236 6.6873 13.7705C6.56178 13.9175 6.39153 14 6.21401 14C6.03649 14 5.86624 13.9175 5.74072 13.7705C5.61519 13.6236 5.54467 13.4243 5.54467 13.2165H6.88335ZM6.88379 1.12511V1.14496L5.54512 1.14392V1.12407L6.88379 1.12511ZM6.88379 1.14496V1.37715L5.54512 1.37584V1.14392L6.88379 1.14496ZM6.88379 1.37715V1.60907L5.54512 1.60802V1.37584L6.88379 1.37715ZM6.88379 1.60907L6.88357 1.84125L5.5449 1.84021L5.54512 1.60802L6.88379 1.60907ZM6.88357 1.84125L6.88335 2.07344L5.54467 2.07239L5.5449 1.84021L6.88357 1.84125ZM6.88335 2.07344V2.30562L5.54467 2.3051V2.07239L6.88335 2.07344ZM6.88335 2.30562V7.54793H5.54467V2.3051L6.88335 2.30562ZM6.88335 7.55759V13.2165H5.54467V7.55759H6.88335Z" fill="var(--fill-0, black)"/>
<path d="M6.22263 4.12434e-07C6.46428 3.89944e-05 6.70357 0.055995 6.92683 0.164255C7.15013 0.272551 7.35292 0.43143 7.52383 0.631514L12.2484 6.1621C12.5098 6.46809 12.5098 6.96408 12.2484 7.27005C11.987 7.57597 11.5633 7.57603 11.3019 7.27005L6.57734 1.73947C6.53073 1.68489 6.47528 1.64148 6.41437 1.61194C6.35355 1.58246 6.28845 1.56709 6.22263 1.56705C6.1567 1.56705 6.09093 1.58241 6.03002 1.61194C5.96921 1.64147 5.9136 1.68497 5.86704 1.73947L1.14247 7.27005C0.881102 7.57587 0.457348 7.57587 0.195985 7.27005C-0.0653617 6.96411 -0.0652948 6.46809 0.195985 6.1621L4.92056 0.631514C5.09139 0.431524 5.29438 0.272548 5.51756 0.164255C5.74089 0.0559575 5.98089 4.12434e-07 6.22263 4.12434e-07Z" fill="var(--fill-0, black)"/>
</g>
</g>
</svg>
