<svg preserveAspectRatio="none" width="100%" height="100%" overflow="visible" style="display: block;" viewBox="0 0 1440 1024.02" fill="none" xmlns="http://www.w3.org/2000/svg">
<g id="Group 143">
<line id="Line 261" x1="32.5" y1="1024.02" x2="32.5" stroke="var(--stroke-0, white)" stroke-opacity="0.32"/>
<line id="Line 293" y1="24.5" x2="1440" y2="24.5" stroke="var(--stroke-0, white)" stroke-opacity="0.32"/>
<line id="Line 294" y1="69.5" x2="1440" y2="69.5" stroke="var(--stroke-0, white)" stroke-opacity="0.32"/>
<line id="Line 295" y1="86.5" x2="1440" y2="86.5" stroke="var(--stroke-0, white)" stroke-opacity="0.32"/>
<line id="Line 296" y1="132.5" x2="1440" y2="132.5" stroke="var(--stroke-0, white)" stroke-opacity="0.32"/>
<line id="Line 297" y1="148.5" x2="1440" y2="148.5" stroke="var(--stroke-0, white)" stroke-opacity="0.32"/>
<line id="Line 298" y1="193.5" x2="1440" y2="193.5" stroke="var(--stroke-0, white)" stroke-opacity="0.32"/>
<line id="Line 299" y1="209.5" x2="1440" y2="209.5" stroke="var(--stroke-0, white)" stroke-opacity="0.32"/>
<line id="Line 300" y1="256.5" x2="1440" y2="256.5" stroke="var(--stroke-0, white)" stroke-opacity="0.32"/>
<line id="Line 301" y1="272.5" x2="1440" y2="272.5" stroke="var(--stroke-0, white)" stroke-opacity="0.32"/>
<line id="Line 302" y1="317.5" x2="1440" y2="317.5" stroke="var(--stroke-0, white)" stroke-opacity="0.32"/>
<line id="Line 303" y1="334.5" x2="1440" y2="334.5" stroke="var(--stroke-0, white)" stroke-opacity="0.32"/>
<line id="Line 304" y1="380.5" x2="1440" y2="380.5" stroke="var(--stroke-0, white)" stroke-opacity="0.32"/>
<line id="Line 305" y1="396.5" x2="1440" y2="396.5" stroke="var(--stroke-0, white)" stroke-opacity="0.32"/>
<line id="Line 306" y1="441.5" x2="1440" y2="441.5" stroke="var(--stroke-0, white)" stroke-opacity="0.32"/>
<line id="Line 307" y1="457.5" x2="1440" y2="457.5" stroke="var(--stroke-0, white)" stroke-opacity="0.32"/>
<line id="Line 308" y1="504.5" x2="1440" y2="504.5" stroke="var(--stroke-0, white)" stroke-opacity="0.32"/>
<line id="Line 309" y1="520.5" x2="1440" y2="520.5" stroke="var(--stroke-0, white)" stroke-opacity="0.32"/>
<line id="Line 310" y1="565.5" x2="1440" y2="565.5" stroke="var(--stroke-0, white)" stroke-opacity="0.32"/>
<line id="Line 311" y1="582.5" x2="1440" y2="582.5" stroke="var(--stroke-0, white)" stroke-opacity="0.32"/>
<line id="Line 312" y1="628.5" x2="1440" y2="628.5" stroke="var(--stroke-0, white)" stroke-opacity="0.32"/>
<line id="Line 313" y1="644.5" x2="1440" y2="644.5" stroke="var(--stroke-0, white)" stroke-opacity="0.32"/>
<line id="Line 314" y1="689.5" x2="1440" y2="689.5" stroke="var(--stroke-0, white)" stroke-opacity="0.32"/>
<line id="Line 315" y1="705.5" x2="1440" y2="705.5" stroke="var(--stroke-0, white)" stroke-opacity="0.32"/>
<line id="Line 316" y1="752.5" x2="1440" y2="752.5" stroke="var(--stroke-0, white)" stroke-opacity="0.32"/>
<line id="Line 317" y1="768.5" x2="1440" y2="768.5" stroke="var(--stroke-0, white)" stroke-opacity="0.32"/>
<line id="Line 318" y1="813.5" x2="1440" y2="813.5" stroke="var(--stroke-0, white)" stroke-opacity="0.32"/>
<line id="Line 319" y1="830.5" x2="1440" y2="830.5" stroke="var(--stroke-0, white)" stroke-opacity="0.32"/>
<line id="Line 320" y1="876.5" x2="1440" y2="876.5" stroke="var(--stroke-0, white)" stroke-opacity="0.32"/>
<line id="Line 321" y1="892.5" x2="1440" y2="892.5" stroke="var(--stroke-0, white)" stroke-opacity="0.32"/>
<line id="Line 322" y1="937.5" x2="1440" y2="937.5" stroke="var(--stroke-0, white)" stroke-opacity="0.32"/>
<line id="Line 323" y1="953.5" x2="1440" y2="953.5" stroke="var(--stroke-0, white)" stroke-opacity="0.32"/>
<line id="Line 324" y1="1000.5" x2="1440" y2="1000.5" stroke="var(--stroke-0, white)" stroke-opacity="0.32"/>
<line id="Line 262" x1="103.5" y1="1024.02" x2="103.5" stroke="var(--stroke-0, white)" stroke-opacity="0.32"/>
<line id="Line 263" x1="118.5" y1="1024.02" x2="118.5" stroke="var(--stroke-0, white)" stroke-opacity="0.32"/>
<line id="Line 264" x1="189.5" y1="1024.02" x2="189.5" stroke="var(--stroke-0, white)" stroke-opacity="0.32"/>
<line id="Line 265" x1="205.5" y1="1024.02" x2="205.5" stroke="var(--stroke-0, white)" stroke-opacity="0.32"/>
<line id="Line 266" x1="276.5" y1="1024.02" x2="276.5" stroke="var(--stroke-0, white)" stroke-opacity="0.32"/>
<line id="Line 267" x1="292.5" y1="1024.02" x2="292.5" stroke="var(--stroke-0, white)" stroke-opacity="0.32"/>
<line id="Line 268" x1="363.5" y1="1024.02" x2="363.5" stroke="var(--stroke-0, white)" stroke-opacity="0.32"/>
<line id="Line 269" x1="379.5" y1="1024.02" x2="379.5" stroke="var(--stroke-0, white)" stroke-opacity="0.32"/>
<line id="Line 270" x1="450.5" y1="1024.02" x2="450.5" stroke="var(--stroke-0, white)" stroke-opacity="0.32"/>
<line id="Line 271" x1="466.5" y1="1024.02" x2="466.5" stroke="var(--stroke-0, white)" stroke-opacity="0.32"/>
<line id="Line 272" x1="537.5" y1="1024.02" x2="537.5" stroke="var(--stroke-0, white)" stroke-opacity="0.32"/>
<line id="Line 273" x1="553.5" y1="1024.02" x2="553.5" stroke="var(--stroke-0, white)" stroke-opacity="0.32"/>
<line id="Line 274" x1="624.5" y1="1024.02" x2="624.5" stroke="var(--stroke-0, white)" stroke-opacity="0.32"/>
<line id="Line 277" x1="727.5" y1="1024.02" x2="727.5" stroke="var(--stroke-0, white)" stroke-opacity="0.32"/>
<line id="Line 278" x1="798.5" y1="1024.02" x2="798.5" stroke="var(--stroke-0, white)" stroke-opacity="0.32"/>
<line id="Line 275" x1="640.5" y1="1024.02" x2="640.5" stroke="var(--stroke-0, white)" stroke-opacity="0.32"/>
<line id="Line 276" x1="711.5" y1="1024.02" x2="711.5" stroke="var(--stroke-0, white)" stroke-opacity="0.32"/>
<line id="Line 279" x1="814.5" y1="1024.02" x2="814.5" stroke="var(--stroke-0, white)" stroke-opacity="0.32"/>
<line id="Line 280" x1="885.5" y1="1024.02" x2="885.5" stroke="var(--stroke-0, white)" stroke-opacity="0.32"/>
<line id="Line 281" x1="901.5" y1="1024.02" x2="901.5" stroke="var(--stroke-0, white)" stroke-opacity="0.32"/>
<line id="Line 282" x1="972.5" y1="1024.02" x2="972.5" stroke="var(--stroke-0, white)" stroke-opacity="0.32"/>
<line id="Line 283" x1="988.5" y1="1024.02" x2="988.5" stroke="var(--stroke-0, white)" stroke-opacity="0.32"/>
<line id="Line 284" x1="1059.5" y1="1024.02" x2="1059.5" stroke="var(--stroke-0, white)" stroke-opacity="0.32"/>
<line id="Line 285" x1="1075.5" y1="1024.02" x2="1075.5" stroke="var(--stroke-0, white)" stroke-opacity="0.32"/>
<line id="Line 286" x1="1146.5" y1="1024.02" x2="1146.5" stroke="var(--stroke-0, white)" stroke-opacity="0.32"/>
<line id="Line 287" x1="1249.5" y1="1024.02" x2="1249.5" stroke="var(--stroke-0, white)" stroke-opacity="0.32"/>
<line id="Line 288" x1="1320.5" y1="1024.02" x2="1320.5" stroke="var(--stroke-0, white)" stroke-opacity="0.32"/>
<line id="Line 291" x1="1336.5" y1="1024.02" x2="1336.5" stroke="var(--stroke-0, white)" stroke-opacity="0.32"/>
<line id="Line 292" x1="1407.5" y1="1024.02" x2="1407.5" stroke="var(--stroke-0, white)" stroke-opacity="0.32"/>
<line id="Line 289" x1="1162.5" y1="1024.02" x2="1162.5" stroke="var(--stroke-0, white)" stroke-opacity="0.32"/>
<line id="Line 290" x1="1233.5" y1="1024.02" x2="1233.5" stroke="var(--stroke-0, white)" stroke-opacity="0.32"/>
</g>
</svg>
