<svg preserveAspectRatio="none" width="100%" height="100%" overflow="visible" style="display: block;" viewBox="0 0 312 128" fill="none" xmlns="http://www.w3.org/2000/svg">
<g id="Frame 673">
<g id="Vector" filter="url(#filter1_d_0_10)">
<path fill-rule="evenodd" clip-rule="evenodd" d="M171.859 69.2484C172.159 69.2484 172.383 69.3764 172.533 69.6324C172.704 69.8884 172.789 70.2298 172.789 70.6564C172.789 70.9978 172.693 71.3071 172.501 71.5844C172.33 71.8617 172.041 72.0004 171.635 72.0004C173.794 72.0004 175.536 70.9764 176.861 68.9284C177.46 69.8884 178.229 70.6458 179.17 71.2004C180.132 71.7337 181.233 72.0004 182.473 72.0004C183.542 72.0004 184.515 71.7871 185.391 71.3604C186.268 70.9124 187.016 70.2938 187.636 69.5044C188.342 71.1684 189.71 72.0004 191.741 72.0004L192.735 69.0884C192.457 69.1951 192.201 69.2484 191.965 69.2484C191.281 69.2484 190.779 68.9925 190.458 68.4805C190.159 67.9685 190.009 67.1258 190.009 65.9525V44.6727C189.539 44.5234 189.058 44.4487 188.566 44.4487C187.989 44.4487 187.497 44.5234 187.091 44.6727V57.6006C186.599 57.1099 185.99 56.7259 185.263 56.4486C184.536 56.1499 183.799 56.0006 183.05 56.0006C181.639 56.0006 180.378 56.3633 179.266 57.0886C178.176 57.8139 177.31 58.8059 176.669 60.0646C176.027 61.3232 175.707 62.7632 175.707 64.3845C175.707 64.6832 175.717 64.9818 175.739 65.2805C175.268 66.4965 174.681 67.4671 173.975 68.1925C173.291 68.8964 172.586 69.2484 171.859 69.2484ZM179.715 67.9685C179.031 67.0938 178.689 65.8992 178.689 64.3845C178.689 63.2965 178.892 62.3365 179.298 61.5045C179.705 60.6512 180.26 59.9792 180.966 59.4886C181.671 58.9979 182.484 58.7526 183.403 58.7526C184.109 58.7526 184.793 58.9339 185.456 59.2966C186.118 59.6379 186.663 60.0966 187.091 60.6726V64.2565C187.091 65.7498 186.674 66.9551 185.84 67.8725C185.028 68.7898 183.948 69.2484 182.601 69.2484C181.383 69.2484 180.421 68.8218 179.715 67.9685Z" fill="var(--fill-0, white)"/>
<path d="M42.341 63.1043C41.8707 62.9976 41.4324 62.8163 41.0262 62.5603C40.62 62.3043 40.2779 61.9523 40 61.5043L41.0903 59.8723C42.1165 58.3577 43.0358 57.3337 43.8482 56.8004C44.682 56.2671 45.5799 56.0004 46.542 56.0004C47.8034 56.0004 48.7975 56.4484 49.5244 57.3444C50.2726 58.219 50.6468 59.371 50.6468 60.8003V64.7043C50.6468 66.2616 50.8392 67.4136 51.224 68.1602C51.6302 68.8856 52.2502 69.2482 53.084 69.2482C54.1529 69.2482 54.944 68.6722 55.457 67.5202C55.9701 66.3683 56.2267 64.8003 56.2267 62.8163V60.8963C56.4191 60.8323 56.6329 60.779 56.8681 60.7363C57.1246 60.6937 57.3812 60.6723 57.6377 60.6723C58.1722 60.6723 58.6532 60.747 59.0808 60.8963V62.8163C59.0808 65.0563 59.2946 66.6883 59.7222 67.7122C60.1711 68.7362 60.8446 69.2482 61.7425 69.2482C62.4694 69.2482 63.068 68.9282 63.5383 68.2882C64.0087 67.6269 64.3614 66.7309 64.5966 65.6003C64.8318 64.4483 64.9493 63.1256 64.9493 61.6323C64.9493 61.5043 64.9493 61.3763 64.9493 61.2483C63.9018 60.8643 63.1321 60.3523 62.6404 59.7123C62.7259 59.0724 62.9076 58.475 63.1856 57.9204C63.4849 57.3444 63.8483 56.8857 64.2759 56.5444C64.7035 56.1817 65.1311 56.0004 65.5586 56.0004C66.2428 56.0004 66.7986 56.5124 67.2262 57.5364C67.6538 58.5604 67.8676 59.883 67.8676 61.5043C67.8676 63.5736 67.6324 65.3976 67.1621 66.9763C66.6917 68.5549 65.9862 69.7922 65.0455 70.6882C64.1262 71.5629 62.9932 72.0002 61.6463 72.0002C60.7697 72.0002 59.9787 71.7762 59.2732 71.3282C58.5677 70.8802 58.0012 70.2402 57.5736 69.4082C57.0605 70.2189 56.3977 70.8589 55.5853 71.3282C54.7729 71.7762 53.8643 72.0002 52.8595 72.0002C51.2347 72.0002 49.9733 71.3922 49.0754 70.1762C48.1775 68.9602 47.7285 67.2536 47.7285 65.0563V61.3443C47.7285 60.5337 47.6109 59.9043 47.3758 59.4563C47.162 58.987 46.7985 58.7524 46.2854 58.7524C45.9648 58.7524 45.6013 58.9017 45.1951 59.2003C44.8103 59.4777 44.2865 60.1283 43.6237 61.1523L42.341 63.1043Z" fill="var(--fill-0, white)"/>
<path d="M75.181 71.5522C74.9672 71.6162 74.732 71.6695 74.4755 71.7122C74.2189 71.7549 73.9731 71.7762 73.7379 71.7762C73.2462 71.7762 72.7438 71.7015 72.2307 71.5522V61.1523C71.461 61.4083 70.6593 61.611 69.8255 61.7603C68.9704 61.8883 68.2007 61.9523 67.5166 61.9523C66.7683 61.9523 66.2231 61.8563 65.8811 61.6643C65.539 61.4723 65.368 61.099 65.368 60.5443C65.368 60.1603 65.4428 59.883 65.5925 59.7123C65.7421 59.5203 65.9132 59.4243 66.1056 59.4243H66.9714C67.8266 59.4243 68.6924 59.339 69.569 59.1683C70.4455 58.9977 71.3327 58.731 72.2307 58.3684V46.6245C72.2307 44.4912 72.6796 42.8485 73.5775 41.6966C74.4968 40.5446 75.8223 39.9792 77.554 40.0006C79.1361 40.0219 80.3654 40.6192 81.2419 41.7926C82.1398 42.9659 82.5888 44.4912 82.5888 46.3685C82.5888 48.3951 82.2467 50.3151 81.5626 52.1284C80.8785 53.9204 80.0019 55.4991 78.933 56.8644C79.3606 56.779 79.7882 56.7364 80.2157 56.7364C81.8192 56.7364 83.0912 57.3017 84.0319 58.4324C84.9939 59.563 85.475 61.0777 85.475 62.9763V65.7283C85.475 66.9656 85.6246 67.8616 85.9239 68.4162C86.2446 68.9709 86.7684 69.2482 87.4953 69.2482C87.8374 69.2482 88.0832 69.3869 88.2329 69.6642C88.3825 69.9202 88.4574 70.2509 88.4574 70.6562C88.4574 71.0615 88.3505 71.3815 88.1367 71.6162C87.9443 71.8722 87.6663 72.0002 87.3029 72.0002C85.7636 72.0002 84.5771 71.5095 83.7433 70.5282C82.9309 69.5256 82.5247 68.1176 82.5247 66.3043V62.9123C82.5247 61.8243 82.2788 60.9817 81.7871 60.3843C81.3168 59.7657 80.6433 59.4563 79.7668 59.4563C78.9116 59.4563 78.142 59.7443 77.4578 60.3203C76.7737 60.875 76.2285 61.643 75.8223 62.6243C75.4161 63.6056 75.2023 64.7363 75.181 66.0163V71.5522ZM75.0848 46.5925V57.0564C76.5599 55.7764 77.7037 54.2191 78.5161 52.3844C79.3285 50.5285 79.7347 48.5125 79.7347 46.3365C79.7347 45.1419 79.5316 44.2352 79.1254 43.6165C78.7406 42.9765 78.174 42.6565 77.4258 42.6565C75.8651 42.6565 75.0848 43.9685 75.0848 46.5925Z" fill="var(--fill-0, white)"/>
<path d="M87.5271 69.2482C88.254 69.2482 88.9595 68.8962 89.6436 68.1922C90.3491 67.4669 90.9371 66.4963 91.4074 65.2803C91.386 64.9816 91.3753 64.6829 91.3753 64.3843C91.3753 62.763 91.696 61.323 92.3374 60.0643C92.9788 58.8057 93.8446 57.8137 94.935 57.0884C96.0467 56.3631 97.308 56.0004 98.719 56.0004C99.4673 56.0004 100.205 56.1497 100.932 56.4484C101.659 56.7257 102.268 57.1097 102.76 57.6004V56.2884C102.952 56.2244 103.177 56.1711 103.433 56.1284C103.69 56.0857 103.957 56.0644 104.235 56.0644C104.748 56.0644 105.229 56.1391 105.678 56.2884V65.6643C105.678 66.7949 105.849 67.6802 106.191 68.3202C106.554 68.9389 107.153 69.2482 107.987 69.2482C108.35 69.2482 108.596 69.3976 108.724 69.6962C108.853 69.9949 108.917 70.3149 108.917 70.6562C108.917 70.9975 108.821 71.3069 108.628 71.5842C108.457 71.8615 108.169 72.0002 107.762 72.0002C105.667 72.0002 104.267 71.0615 103.561 69.1842C102.941 70.0589 102.161 70.7522 101.22 71.2642C100.301 71.7549 99.2749 72.0002 98.1418 72.0002C96.9018 72.0002 95.8008 71.7335 94.8387 71.2002C93.8981 70.6455 93.1284 69.8882 92.5298 68.9282C91.2043 70.9762 89.4622 72.0002 87.3029 72.0002C87.025 72.0002 86.8002 71.8722 86.6292 71.6162C86.4582 71.3602 86.3726 71.0295 86.3726 70.6242C86.3726 69.7069 86.7575 69.2482 87.5271 69.2482ZM94.3577 64.3843C94.3577 65.8989 94.6998 67.0936 95.3839 67.9682C96.0894 68.8216 97.0515 69.2482 98.2701 69.2482C99.617 69.2482 100.697 68.7896 101.509 67.8722C102.343 66.9549 102.76 65.7496 102.76 64.2563V60.6723C102.332 60.0963 101.787 59.6377 101.124 59.2963C100.461 58.9337 99.7773 58.7524 99.0718 58.7524C98.1525 58.7524 97.3401 58.9977 96.6346 59.4883C95.9291 59.979 95.3732 60.651 94.967 61.5043C94.5608 62.3363 94.3577 63.2963 94.3577 64.3843Z" fill="var(--fill-0, white)"/>
<path d="M107.977 69.2482C108.512 69.2482 109.121 69.0882 109.805 68.7682C110.511 68.4482 111.195 67.9042 111.857 67.1363C112.52 66.3683 113.065 65.3336 113.493 64.0323C113.92 62.7096 114.134 61.0563 114.134 59.0724V56.0004H111.761C111.612 55.6591 111.537 55.2324 111.537 54.7204C111.537 54.2084 111.612 53.7817 111.761 53.4404H114.134V47.7765C114.54 47.6272 115.032 47.5525 115.609 47.5525C116.122 47.5525 116.614 47.6272 117.085 47.7765V53.4404H121.863C122.034 53.7817 122.119 54.2084 122.119 54.7204C122.119 55.2324 122.034 55.6591 121.863 56.0004H117.085V62.6243C117.085 64.7576 117.405 66.4003 118.047 67.5522C118.709 68.6829 119.639 69.2482 120.837 69.2482C121.457 69.2482 121.767 69.7176 121.767 70.6562C121.767 71.0615 121.66 71.3815 121.446 71.6162C121.253 71.8722 120.976 72.0002 120.612 72.0002C119.222 72.0002 118.047 71.6055 117.085 70.8162C116.144 70.0269 115.449 68.9282 115 67.5202C114.102 69.0562 113.001 70.1869 111.697 70.9122C110.393 71.6375 109.078 72.0002 107.753 72.0002C107.475 72.0002 107.25 71.8615 107.079 71.5842C106.908 71.3282 106.823 71.0082 106.823 70.6242C106.823 70.2189 106.919 69.8882 107.111 69.6322C107.304 69.3762 107.592 69.2482 107.977 69.2482Z" fill="var(--fill-0, white)"/>
<path d="M120.848 69.2482C121.297 69.2482 121.778 69.1096 122.291 68.8322C122.805 68.5549 123.286 68.1282 123.735 67.5522C124.269 66.8269 124.654 65.9949 124.889 65.0563C125.146 64.1176 125.306 63.1683 125.37 62.2083V56.4484C125.562 56.3844 125.787 56.3311 126.043 56.2884C126.3 56.2457 126.567 56.2244 126.845 56.2244C127.337 56.2244 127.818 56.2991 128.288 56.4484V65.6643C128.288 66.7949 128.459 67.6802 128.801 68.3202C129.165 68.9389 129.763 69.2482 130.597 69.2482C130.961 69.2482 131.206 69.3976 131.335 69.6962C131.463 69.9949 131.527 70.3149 131.527 70.6562C131.527 70.9975 131.431 71.3069 131.239 71.5842C131.068 71.8615 130.779 72.0002 130.373 72.0002C128.149 72.0002 126.706 70.9549 126.043 68.8642C125.744 69.3549 125.423 69.7709 125.081 70.1122C124.504 70.6882 123.831 71.1469 123.061 71.4882C122.313 71.8295 121.5 72.0002 120.624 72.0002C120.325 72.0002 120.1 71.8509 119.95 71.5522C119.779 71.2749 119.694 70.9655 119.694 70.6242C119.694 70.2615 119.79 69.9416 119.983 69.6642C120.154 69.3869 120.442 69.2482 120.848 69.2482ZM126.877 51.8404C126.279 51.8404 125.766 51.6271 125.338 51.2004C124.91 50.7738 124.697 50.2618 124.697 49.6645C124.697 49.0245 124.9 48.5018 125.306 48.0965C125.733 47.6912 126.257 47.4885 126.877 47.4885C127.519 47.4885 128.042 47.6912 128.449 48.0965C128.855 48.5018 129.058 49.0245 129.058 49.6645C129.058 50.2831 128.844 50.8058 128.417 51.2324C128.01 51.6378 127.497 51.8404 126.877 51.8404Z" fill="var(--fill-0, white)"/>
<path d="M130.363 72.0002C130.086 72.0002 129.861 71.8722 129.69 71.6162C129.519 71.3602 129.433 71.0295 129.433 70.6242C129.433 70.1975 129.54 69.8669 129.754 69.6322C129.947 69.3762 130.214 69.2482 130.556 69.2482C131.497 69.2482 132.394 68.8322 133.25 68.0002C134.126 67.1469 135.099 65.7283 136.168 63.7443V46.6245C136.168 44.4912 136.617 42.8485 137.515 41.6966C138.434 40.5446 139.76 39.9792 141.491 40.0006C143.073 40.0219 144.303 40.6192 145.179 41.7926C146.077 42.9659 146.526 44.4912 146.526 46.3685C146.526 47.8832 146.248 49.5685 145.692 51.4244C145.136 53.2804 144.399 55.0617 143.479 56.7684C143.693 56.747 143.918 56.7364 144.153 56.7364C145.756 56.7364 147.028 57.3017 147.969 58.4324C148.931 59.563 149.412 61.0777 149.412 62.9763V65.7283C149.412 66.9656 149.562 67.8616 149.861 68.4162C150.182 68.9709 150.706 69.2482 151.432 69.2482C151.775 69.2482 152.02 69.3869 152.17 69.6642C152.32 69.9202 152.395 70.2509 152.395 70.6562C152.395 71.0615 152.288 71.3815 152.074 71.6162C151.881 71.8722 151.604 72.0002 151.24 72.0002C149.701 72.0002 148.514 71.5095 147.68 70.5282C146.868 69.5256 146.462 68.1176 146.462 66.3043V62.9123C146.462 61.8243 146.216 60.9817 145.724 60.3843C145.254 59.7657 144.581 59.4563 143.704 59.4563C142.849 59.4563 142.079 59.7443 141.395 60.3203C140.711 60.875 140.166 61.643 139.76 62.6243C139.353 63.6056 139.14 64.7363 139.118 66.0163V71.5522C138.904 71.6162 138.669 71.6695 138.413 71.7122C138.156 71.7549 137.91 71.7762 137.675 71.7762C137.183 71.7762 136.681 71.7015 136.168 71.5522V68.9282C135.291 70.0589 134.393 70.8589 133.474 71.3282C132.576 71.7762 131.539 72.0002 130.363 72.0002ZM139.022 46.5925V58.9444C139.984 57.4724 140.807 55.9897 141.491 54.4964C142.197 53.0031 142.731 51.5631 143.095 50.1765C143.479 48.7685 143.672 47.4885 143.672 46.3365C143.672 45.1419 143.469 44.2352 143.063 43.6165C142.678 42.9765 142.111 42.6565 141.363 42.6565C139.802 42.6565 139.022 43.9685 139.022 46.5925Z" fill="var(--fill-0, white)"/>
<path d="M151.476 69.2482C152.203 69.2482 152.909 68.8962 153.593 68.1922C154.298 67.4669 154.886 66.4963 155.357 65.2803C155.335 64.9816 155.325 64.6829 155.325 64.3843C155.325 62.763 155.645 61.323 156.287 60.0643C156.928 58.8057 157.794 57.8137 158.884 57.0884C159.996 56.3631 161.257 56.0004 162.668 56.0004C163.417 56.0004 164.154 56.1497 164.881 56.4484C165.608 56.7257 166.217 57.1097 166.709 57.6004V56.2884C166.901 56.2244 167.126 56.1711 167.382 56.1284C167.639 56.0857 167.906 56.0644 168.184 56.0644C168.697 56.0644 169.178 56.1391 169.627 56.2884V65.6643C169.627 66.7949 169.798 67.6802 170.14 68.3202C170.504 68.9389 171.102 69.2482 171.936 69.2482C172.3 69.2482 172.545 69.3976 172.674 69.6962C172.802 69.9949 172.866 70.3149 172.866 70.6562C172.866 70.9975 172.77 71.3069 172.577 71.5842C172.406 71.8615 172.118 72.0002 171.712 72.0002C169.616 72.0002 168.216 71.0615 167.511 69.1842C166.891 70.0589 166.11 70.7522 165.17 71.2642C164.25 71.7549 163.224 72.0002 162.091 72.0002C160.851 72.0002 159.75 71.7335 158.788 71.2002C157.847 70.6455 157.078 69.8882 156.479 68.9282C155.154 70.9762 153.411 72.0002 151.252 72.0002C150.974 72.0002 150.749 71.8722 150.578 71.6162C150.407 71.3602 150.322 71.0295 150.322 70.6242C150.322 69.7069 150.707 69.2482 151.476 69.2482ZM158.307 64.3843C158.307 65.8989 158.649 67.0936 159.333 67.9682C160.039 68.8216 161.001 69.2482 162.219 69.2482C163.566 69.2482 164.646 68.7896 165.458 67.8722C166.292 66.9549 166.709 65.7496 166.709 64.2563V60.6723C166.281 60.0963 165.736 59.6377 165.073 59.2963C164.411 58.9337 163.727 58.7524 163.021 58.7524C162.102 58.7524 161.289 58.9977 160.584 59.4883C159.878 59.979 159.322 60.651 158.916 61.5043C158.51 62.3363 158.307 63.2963 158.307 64.3843Z" fill="var(--fill-0, white)"/>
<path d="M196.553 72.0002C195.955 72.0002 195.442 71.7869 195.014 71.3602C194.587 70.9122 194.373 70.3895 194.373 69.7922C194.373 69.1949 194.587 68.6829 195.014 68.2562C195.442 67.8296 195.955 67.6162 196.553 67.6162C197.152 67.6162 197.665 67.8296 198.093 68.2562C198.542 68.6829 198.766 69.1949 198.766 69.7922C198.766 70.3895 198.542 70.9122 198.093 71.3602C197.665 71.7869 197.152 72.0002 196.553 72.0002Z" fill="var(--fill-0, white)"/>
<path d="M203.417 71.6802C202.925 71.5095 202.497 71.2535 202.134 70.9122C201.792 70.5495 201.567 70.1229 201.46 69.6322C201.845 69.2696 202.294 68.8109 202.807 68.2562C203.32 67.7016 203.823 67.0403 204.315 66.2723C204.806 65.4829 205.212 64.5976 205.533 63.6163C205.875 62.635 206.046 61.5363 206.046 60.3203V56.4484C206.239 56.3844 206.463 56.3311 206.72 56.2884C206.976 56.2457 207.243 56.2244 207.521 56.2244C208.013 56.2244 208.494 56.2991 208.964 56.4484V65.9523C208.964 67.1256 209.114 67.9682 209.413 68.4802C209.734 68.9922 210.237 69.2482 210.921 69.2482C211.22 69.2482 211.444 69.3762 211.594 69.6322C211.765 69.8882 211.851 70.2295 211.851 70.6562C211.851 70.9975 211.754 71.3069 211.562 71.5842C211.391 71.8615 211.102 72.0002 210.696 72.0002C208.302 72.0002 206.827 70.8589 206.271 68.5762C205.373 69.9416 204.421 70.9762 203.417 71.6802ZM207.553 51.8404C206.955 51.8404 206.442 51.6271 206.014 51.2004C205.587 50.7738 205.373 50.2618 205.373 49.6645C205.373 49.0245 205.576 48.5018 205.982 48.0965C206.41 47.6912 206.933 47.4885 207.553 47.4885C208.195 47.4885 208.719 47.6912 209.125 48.0965C209.531 48.5018 209.734 49.0245 209.734 49.6645C209.734 50.2831 209.52 50.8058 209.093 51.2324C208.687 51.6378 208.173 51.8404 207.553 51.8404Z" fill="var(--fill-0, white)"/>
<path d="M210.691 72.0002C210.414 72.0002 210.189 71.8722 210.018 71.6162C209.847 71.3602 209.761 71.0295 209.761 70.6242C209.761 69.7069 210.146 69.2482 210.916 69.2482C211.6 69.2482 212.209 68.9069 212.744 68.2242C213.3 67.5202 213.781 66.3576 214.187 64.7363L215.149 60.9923C216.047 57.6644 217.757 56.0004 220.28 56.0004C221.242 56.0004 222.054 56.2884 222.717 56.8644C223.38 57.419 223.84 58.1764 224.096 59.1364C224.695 58.1337 225.464 57.3657 226.405 56.8324C227.346 56.2777 228.393 56.0004 229.548 56.0004C231.215 56.0004 232.498 56.5444 233.396 57.6324C234.315 58.7204 234.775 60.2457 234.775 62.2083V65.9523C234.775 67.1256 234.925 67.9682 235.224 68.4802C235.545 68.9922 236.047 69.2482 236.731 69.2482C237.03 69.2482 237.255 69.3762 237.405 69.6322C237.576 69.8882 237.661 70.2295 237.661 70.6562C237.661 70.9975 237.565 71.3069 237.372 71.5842C237.201 71.8615 236.913 72.0002 236.507 72.0002C233.407 72.0002 231.857 70.1015 231.857 66.3043V62.2083C231.857 59.9043 230.948 58.7524 229.131 58.7524C228.19 58.7524 227.356 59.1257 226.63 59.8723C225.924 60.619 225.368 61.6537 224.962 62.9763C224.577 64.299 224.385 65.8349 224.385 67.5842V71.5522C224.171 71.6162 223.936 71.6695 223.679 71.7122C223.423 71.7549 223.177 71.7762 222.942 71.7762C222.429 71.7762 221.947 71.7015 221.499 71.5522V61.3443C221.499 60.5123 221.392 59.8723 221.178 59.4243C220.964 58.9764 220.579 58.7524 220.023 58.7524C219.574 58.7524 219.19 58.955 218.869 59.3603C218.548 59.7657 218.27 60.4163 218.035 61.3123L216.849 65.9203C216.293 68.0322 215.523 69.5789 214.54 70.5602C213.556 71.5202 212.273 72.0002 210.691 72.0002Z" fill="var(--fill-0, white)"/>
<path d="M246.374 88C244.578 88 243.284 87.3387 242.493 86.016C241.702 84.6934 241.307 82.8694 241.307 80.5441V69.9202C240.58 70.6669 239.832 71.2002 239.062 71.5202C238.314 71.8402 237.469 72.0002 236.529 72.0002C236.251 72.0002 236.026 71.8722 235.855 71.6162C235.684 71.3602 235.599 71.0295 235.599 70.6242C235.599 70.1975 235.706 69.8669 235.919 69.6322C236.112 69.3762 236.379 69.2482 236.721 69.2482C237.469 69.2482 238.207 69.0029 238.934 68.5122C239.661 68.0002 240.452 67.1896 241.307 66.0803V47.5525C241.307 46.4005 241.392 45.3552 241.563 44.4165C241.756 43.4565 242.087 42.6352 242.558 41.9526C242.942 41.3766 243.434 40.9072 244.033 40.5446C244.653 40.1819 245.422 40.0006 246.342 40.0006C248.009 40.0006 249.292 40.7472 250.19 42.2406C251.088 43.7339 251.537 45.8458 251.537 48.5765C251.537 55.0831 249.538 60.7363 245.54 65.5363C246.951 66.0056 248.159 67.0083 249.164 68.5442C249.891 69.0136 250.639 69.2482 251.408 69.2482C251.686 69.2482 251.911 69.3762 252.082 69.6322C252.253 69.8882 252.338 70.2295 252.338 70.6562C252.338 71.0615 252.232 71.3815 252.018 71.6162C251.825 71.8722 251.547 72.0002 251.184 72.0002C251.034 72.0002 250.895 72.0002 250.767 72.0002C251.109 73.0668 251.366 74.2295 251.537 75.4882C251.729 76.7681 251.825 78.1121 251.825 79.5201C251.825 82.3147 251.355 84.4267 250.414 85.856C249.495 87.2853 248.148 88 246.374 88ZM244.161 46.8805V62.8483C245.615 60.8643 246.726 58.6457 247.496 56.1924C248.287 53.7177 248.683 51.1684 248.683 48.5445C248.683 46.6245 248.48 45.1632 248.073 44.1605C247.689 43.1579 247.111 42.6565 246.342 42.6565C244.888 42.6565 244.161 44.0645 244.161 46.8805ZM244.161 80.5441C244.161 82.1441 244.343 83.3494 244.706 84.16C245.07 84.9707 245.679 85.376 246.534 85.376C247.325 85.376 247.934 84.8534 248.362 83.808C248.79 82.7841 249.003 81.2801 249.003 79.2961C249.003 75.9255 248.544 73.2162 247.624 71.1682C246.919 70.8695 246.256 70.5175 245.636 70.1122C245.038 69.7069 244.546 69.2802 244.161 68.8322V80.5441Z" fill="var(--fill-0, white)"/>
<path d="M251.408 69.2482C252.114 69.2482 252.798 68.9176 253.461 68.2562C254.145 67.5736 254.309 66.652 254.309 65.5363C254.223 65.0243 253.461 63.6455 253.461 63.1122C253.074 61.5728 253.375 59.4816 254.309 58.5618C254.861 57.3207 257.648 56.1059 259.33 56.8348C261.229 57.4288 261.624 58.3205 262.633 59.2857C263.568 57.8739 265.972 56.6357 267.122 56.7289C268.342 56.6149 270.312 57.3672 270.953 58.5618C271.929 59.5038 272.131 62.0211 271.929 63.5786C271.475 64.9863 269.959 67.0029 268.949 68.0953C267.882 69.2482 267.349 69.7911 266.058 70.9242C264.767 72.0573 264.165 72.9173 262.633 73.333C261.329 73.333 260.524 72.2242 259.298 71.1682C258.071 70.1122 257.421 69.6322 256.476 68.8322C255.15 70.9442 253.386 72.0002 251.184 72.0002C250.906 72.0002 250.682 71.8722 250.511 71.6162C250.34 71.3602 250.254 71.0295 250.254 70.6242C250.254 69.7069 250.639 69.2482 251.408 69.2482ZM262.601 72.0002C263.969 72.0002 267.862 67.6672 268.674 66.7072C269.508 65.7473 270.953 63.2525 270.953 61.6525C270.953 60.0952 269.801 58.2225 268.674 58.0119C267.672 57.5571 264.134 59.9439 262.805 61.2313C261.427 60.2245 260.815 59.8991 258.433 58.0119C256.745 57.4102 254.309 59.6526 254.309 61.2313C254.309 62.7886 256.413 65.8608 257.257 66.978C258.102 68.0953 261.152 71.2962 262.601 72.0002Z" fill="var(--fill-0, white)"/>
<path d="M262.601 72.0002C263.969 72.0002 267.862 67.6672 268.674 66.7072C269.508 65.7473 270.953 63.2525 270.953 61.6525C270.953 60.0952 269.801 58.2225 268.674 58.0119C267.672 57.5571 264.134 59.9439 262.805 61.2313C261.427 60.2245 260.815 59.8991 258.433 58.0119C256.745 57.4102 254.309 59.6526 254.309 61.2313C254.309 62.7886 256.413 65.8608 257.257 66.978C258.102 68.0953 261.152 71.2962 262.601 72.0002Z" fill="#FF0000"/>
</g>
</g>
<defs>
<filter id="filter0_d_0_10" x="0" y="0" width="312" height="128" filterUnits="userSpaceOnUse" color-interpolation-filters="sRGB">
<feFlood flood-opacity="0" result="BackgroundImageFix"/>
<feColorMatrix in="SourceAlpha" type="matrix" values="0 0 0 0 0 0 0 0 0 0 0 0 0 0 0 0 0 0 127 0" result="hardAlpha"/>
<feOffset/>
<feGaussianBlur stdDeviation="16"/>
<feComposite in2="hardAlpha" operator="out"/>
<feColorMatrix type="matrix" values="0 0 0 0 1 0 0 0 0 0.583008 0 0 0 0 0.589958 0 0 0 1 0"/>
<feBlend mode="normal" in2="BackgroundImageFix" result="effect1_dropShadow_0_10"/>
<feBlend mode="normal" in="SourceGraphic" in2="effect1_dropShadow_0_10" result="shape"/>
</filter>
<filter id="filter1_d_0_10" x="36" y="36" width="240" height="56" filterUnits="userSpaceOnUse" color-interpolation-filters="sRGB">
<feFlood flood-opacity="0" result="BackgroundImageFix"/>
<feColorMatrix in="SourceAlpha" type="matrix" values="0 0 0 0 0 0 0 0 0 0 0 0 0 0 0 0 0 0 127 0" result="hardAlpha"/>
<feOffset/>
<feGaussianBlur stdDeviation="2"/>
<feComposite in2="hardAlpha" operator="out"/>
<feColorMatrix type="matrix" values="0 0 0 0 0 0 0 0 0 0 0 0 0 0 0 0 0 0 0.25 0"/>
<feBlend mode="normal" in2="BackgroundImageFix" result="effect1_dropShadow_0_10"/>
<feBlend mode="normal" in="SourceGraphic" in2="effect1_dropShadow_0_10" result="shape"/>
</filter>
</defs>
</svg>
