<svg width="32" height="32" viewBox="0 0 32 32" fill="none" xmlns="http://www.w3.org/2000/svg">
<path d="M16 21C20.2985 21 24.1394 21.8729 26.8682 23.2373C29.6562 24.6314 31 26.3727 31 28V31H1V28C1 26.3727 2.3438 24.6314 5.13184 23.2373C7.86062 21.8729 11.7015 21 16 21ZM16 1C17.8565 1 19.6374 1.73705 20.9502 3.0498C22.263 4.36256 23 6.14348 23 8C23 9.85652 22.263 11.6374 20.9502 12.9502C19.6374 14.2629 17.8565 15 16 15C14.1435 15 12.3626 14.2629 11.0498 12.9502C9.73705 11.6374 9 9.85652 9 8C9 6.14348 9.73705 4.36256 11.0498 3.0498C12.3626 1.73705 14.1435 1 16 1Z" stroke="black" stroke-width="2"/>
</svg>
