<svg width="32" height="32" viewBox="0 0 32 32" fill="none" xmlns="http://www.w3.org/2000/svg">
<path d="M14.6667 17.3333H1.33335C0.954684 17.3333 0.63824 17.2053 0.384018 16.9493C0.129796 16.6933 0.00179604 16.376 1.82648e-05 15.9973C-0.00175951 15.6187 0.126241 15.3022 0.384018 15.048C0.641795 14.7938 0.958239 14.6667 1.33335 14.6667H14.6667V1.33335C14.6667 0.954684 14.7947 0.63824 15.0507 0.384018C15.3067 0.129796 15.624 0.00179604 16.0027 1.82648e-05C16.3813 -0.00175951 16.6978 0.126241 16.952 0.384018C17.2062 0.641795 17.3333 0.958239 17.3333 1.33335V14.6667H30.6666C31.0453 14.6667 31.3618 14.7947 31.616 15.0507C31.8702 15.3067 31.9982 15.624 32 16.0027C32.0018 16.3813 31.8738 16.6978 31.616 16.952C31.3582 17.2062 31.0418 17.3333 30.6666 17.3333H17.3333V30.6666C17.3333 31.0453 17.2053 31.3618 16.9493 31.616C16.6933 31.8702 16.376 31.9982 15.9973 32C15.6187 32.0018 15.3022 31.8738 15.048 31.616C14.7938 31.3582 14.6667 31.0418 14.6667 30.6666V17.3333Z" fill="black"/>
</svg>
