<svg width="18" height="16" viewBox="0 0 18 16" fill="none" xmlns="http://www.w3.org/2000/svg">
<path d="M1.44523 7.12944C1.31293 7.12952 1.18196 7.15185 1.05977 7.19517C0.937578 7.23848 0.826574 7.30194 0.733093 7.3819C0.63961 7.46187 0.565481 7.55678 0.514936 7.66122C0.464392 7.76566 0.438421 7.87758 0.438509 7.99059C0.438599 8.1036 0.464743 8.21549 0.51545 8.31987C0.566156 8.42426 0.640436 8.51908 0.734043 8.59894C0.82765 8.6788 0.938753 8.74213 1.06101 8.7853C1.18326 8.82848 1.31428 8.85067 1.44657 8.85059L1.44523 7.12944ZM9.70448 8.85002C9.97166 8.85002 10.2279 8.75935 10.4168 8.59796C10.6057 8.43657 10.7119 8.21768 10.7119 7.98944C10.7119 7.7612 10.6057 7.54231 10.4168 7.38092C10.2279 7.21953 9.97166 7.12887 9.70448 7.12887V8.85002ZM9.71691 7.12887C9.44973 7.12887 9.1935 7.21953 9.00457 7.38092C8.81565 7.54231 8.70952 7.7612 8.70952 7.98944C8.70952 8.21768 8.81565 8.43657 9.00457 8.59796C9.1935 8.75935 9.44973 8.85002 9.71691 8.85002V7.12887ZM16.9926 8.85002C17.2598 8.85002 17.516 8.75935 17.7049 8.59796C17.8939 8.43657 18 8.21768 18 7.98944C18 7.7612 17.8939 7.54231 17.7049 7.38092C17.516 7.21953 17.2598 7.12887 16.9926 7.12887V8.85002ZM1.44657 8.85059H1.47209L1.47075 7.12944H1.44523L1.44657 8.85059ZM1.47209 8.85059H1.77062L1.76894 7.12944H1.47075L1.47209 8.85059ZM1.77062 8.85059H2.0688L2.06746 7.12944H1.76894L1.77062 8.85059ZM2.0688 8.85059L2.36732 8.8503L2.36598 7.12915L2.06746 7.12944L2.0688 8.85059ZM2.36732 8.8503L2.66585 8.85002L2.66451 7.12887L2.36598 7.12915L2.36732 8.8503ZM2.66585 8.85002H2.96437L2.9637 7.12887H2.66451L2.66585 8.85002ZM2.96437 8.85002H9.70448V7.12887H2.9637L2.96437 8.85002ZM9.71691 8.85002H16.9926V7.12887H9.71691V8.85002Z" fill="white"/>
<path d="M0 8.00052C4.95911e-05 8.31122 0.0719929 8.61888 0.211185 8.90592C0.350424 9.19302 0.554695 9.45375 0.811947 9.67349L7.9227 15.7479C8.31612 16.084 8.95381 16.084 9.34721 15.7479C9.74053 15.4119 9.7406 14.8671 9.34721 14.531L2.23646 8.45658C2.16629 8.39665 2.11047 8.32535 2.07249 8.24704C2.0346 8.16885 2.01483 8.08515 2.01478 8.00052C2.01478 7.91576 2.03452 7.83119 2.07249 7.75288C2.11047 7.6747 2.16639 7.60319 2.23646 7.54334L9.34721 1.46889C9.74041 1.13285 9.74041 0.588019 9.34721 0.25198C8.95385 -0.0840365 8.31612 -0.0839504 7.9227 0.25198L0.811947 6.32643C0.554817 6.54607 0.350418 6.80706 0.211185 7.094C0.0719452 7.38115 0 7.68972 0 8.00052Z" fill="white"/>
</svg>
