<svg width="21" height="16" viewBox="0 0 21 16" fill="none" xmlns="http://www.w3.org/2000/svg">
<path d="M6.99759 10.6415C7.72459 13.0515 9.81959 14.918 12.3666 15.2885C13.8271 15.5081 15.319 15.2345 16.6066 14.511L18.7786 15.055C19.3321 15.1925 19.8351 14.694 19.6981 14.14L19.1536 11.9635C19.8752 10.6771 20.1488 9.18734 19.9311 7.72851C19.5011 4.81551 17.1276 2.48751 14.2051 2.13051C12.6871 1.94301 11.2511 2.26801 10.0571 2.95851M5.00492 0.541453C2.73592 0.821453 0.888915 2.62695 0.557915 4.88945C0.387113 6.02343 0.599677 7.18197 1.16191 8.18145L0.738914 9.86995C0.714275 9.96825 0.715527 10.0713 0.742548 10.1689C0.769569 10.2666 0.821438 10.3556 0.893097 10.4273C0.964756 10.4989 1.05376 10.5508 1.15143 10.5778C1.24911 10.6048 1.35211 10.6061 1.45041 10.5815L3.13942 10.159C4.13896 10.721 5.2975 10.9334 6.43142 10.7625C8.69392 10.4315 10.4999 8.58445 10.7789 6.31495C10.8785 5.53301 10.7978 4.73865 10.5428 3.99276C10.2879 3.24687 9.8655 2.56926 9.30809 2.0119C8.75068 1.45454 8.07305 1.03223 7.32713 0.777343C6.58122 0.522455 5.78685 0.441762 5.00492 0.541453Z" stroke="white" stroke-linecap="round" stroke-linejoin="round"/>
</svg>
