<svg width="18" height="20" viewBox="0 0 18 20" fill="none" xmlns="http://www.w3.org/2000/svg">
<path d="M3.41667 16.05C2.70942 16.05 2.03115 15.7655 1.53105 15.2592C1.03095 14.7528 0.75 14.0661 0.75 13.35V7.95C0.75 4.5561 0.75 2.8587 1.79178 1.8048C2.83356 0.7509 4.50911 0.75 7.86111 0.75H11.4167C12.1239 0.75 12.8022 1.03446 13.3023 1.54081C13.8024 2.04716 14.0833 2.73392 14.0833 3.45M3.41667 8.85C3.41667 6.3048 3.41667 5.0313 4.198 4.2411C4.97844 3.45 6.23622 3.45 8.75 3.45H11.4167C13.9304 3.45 15.1882 3.45 15.9687 4.2411C16.75 5.0313 16.75 6.3048 16.75 8.85V13.35C16.75 15.8952 16.75 17.1687 15.9687 17.9589C15.1882 18.75 13.9304 18.75 11.4167 18.75H8.75C6.23622 18.75 4.97844 18.75 4.198 17.9589C3.41667 17.1687 3.41667 15.8952 3.41667 13.35V8.85Z" stroke="black" stroke-width="1.5"/>
</svg>
