<svg width="32" height="32" viewBox="0 0 32 32" fill="none" xmlns="http://www.w3.org/2000/svg">
<path d="M3.95852 3.44073e-05C2.47941 3.44073e-05 1.17333 0.876034 0.900741 2.13603C0.549926 3.77203 0 6.68403 0 9.00002C0 11.462 1.50756 13.626 3.78074 14.872C4.42311 15.226 4.74074 15.682 4.74074 16.072V16.892C4.74074 16.928 4.73837 16.964 4.73363 17C4.66963 17.52 4.3757 19.858 4.09837 22.262C3.82578 24.632 3.55556 27.162 3.55556 28C3.55556 29.0609 4.05502 30.0783 4.94409 30.8284C5.83315 31.5786 7.03897 32 8.2963 32C9.55362 32 10.7594 31.5786 11.6485 30.8284C12.5376 30.0783 13.037 29.0609 13.037 28C13.037 27.16 12.7668 24.632 12.4942 22.262C12.2916 20.5079 12.0798 18.7546 11.859 17.002L11.8519 16.892V16.072C11.8519 15.68 12.1695 15.224 12.8119 14.872C13.9723 14.2368 14.926 13.3668 15.5863 12.3413C16.2466 11.3157 16.5925 10.1671 16.5926 9.00002C16.5926 6.68403 16.0427 3.77203 15.6919 2.13603C15.5601 1.53392 15.1816 0.990057 14.6226 0.599587C14.0636 0.209116 13.3598 -0.00310823 12.6341 3.44073e-05C11.8281 3.44073e-05 11.0933 0.254034 10.5387 0.672034C9.90487 0.237377 9.11304 8.00574e-05 8.2963 3.44073e-05C7.44533 3.44073e-05 6.66548 0.252034 6.05393 0.672034C5.4784 0.237827 4.73056 -0.00151581 3.95852 3.44073e-05ZM7.11111 3.00003C7.11111 2.73481 7.23598 2.48046 7.45824 2.29293C7.68051 2.10539 7.98197 2.00003 8.2963 2.00003C8.61063 2.00003 8.91208 2.10539 9.13435 2.29293C9.35661 2.48046 9.48148 2.73481 9.48148 3.00003V9.00002C9.48148 9.26524 9.60635 9.51959 9.82861 9.70713C10.0509 9.89467 10.3523 10 10.6667 10C10.981 10 11.2825 9.89467 11.5047 9.70713C11.727 9.51959 11.8519 9.26524 11.8519 9.00002V2.66003C11.8519 2.57336 11.8721 2.48754 11.9114 2.40746C11.9507 2.32739 12.0083 2.25463 12.081 2.19334C12.1536 2.13205 12.2398 2.08344 12.3347 2.05027C12.4296 2.0171 12.5314 2.00003 12.6341 2.00003C13.0062 2.00003 13.2978 2.21603 13.3594 2.49403C13.7079 4.12003 14.2222 6.87803 14.2222 9.00002C14.2223 9.8341 13.9752 10.6549 13.5032 11.3878C13.0312 12.1207 12.3495 12.7423 11.52 13.196C10.4794 13.766 9.48148 14.768 9.48148 16.072V16.892C9.48148 16.9987 9.4878 17.1053 9.50044 17.212C9.56681 17.728 9.85837 20.06 10.1357 22.456C10.4154 24.886 10.6667 27.286 10.6667 28C10.6667 28.5304 10.4169 29.0391 9.9724 29.4142C9.52787 29.7893 8.92496 30 8.2963 30C7.66763 30 7.06472 29.7893 6.62019 29.4142C6.17566 29.0391 5.92593 28.5304 5.92593 28C5.92593 27.286 6.17719 24.886 6.45689 22.456C6.73422 20.06 7.02578 17.728 7.09215 17.212C7.10479 17.1053 7.11111 16.9987 7.11111 16.892V16.072C7.11111 14.768 6.11318 13.766 5.07259 13.196C4.24313 12.7423 3.56137 12.1207 3.08941 11.3878C2.61744 10.6549 2.37026 9.8341 2.37037 9.00002C2.37037 6.88003 2.88474 4.12003 3.23318 2.49403C3.26565 2.35238 3.35657 2.22502 3.4898 2.13457C3.62303 2.04413 3.78994 1.99646 3.96089 2.00003C4.16794 2.00056 4.36629 2.07033 4.51247 2.19405C4.65865 2.31776 4.74074 2.48533 4.74074 2.66003V9.00002C4.74074 9.26524 4.86561 9.51959 5.08787 9.70713C5.31014 9.89467 5.6116 10 5.92593 10C6.24026 10 6.54171 9.89467 6.76398 9.70713C6.98624 9.51959 7.11111 9.26524 7.11111 9.00002V3.00003ZM18.963 9.00002C18.963 6.61308 20.0868 4.3239 22.0872 2.63607C24.0875 0.948245 26.8007 3.44073e-05 29.6296 3.44073e-05C29.944 3.44073e-05 30.2454 0.105391 30.4677 0.292928C30.6899 0.480464 30.8148 0.734817 30.8148 1.00003V14.956L30.8622 15.404C31.047 17.201 31.2271 18.9984 31.4027 20.796C31.6966 23.81 32 27.118 32 28C32 29.0609 31.5005 30.0783 30.6115 30.8284C29.7224 31.5786 28.5166 32 27.2593 32C26.0019 32 24.7961 31.5786 23.9071 30.8284C23.018 30.0783 22.5185 29.0609 22.5185 28C22.5185 27.12 22.8219 23.81 23.1159 20.796C23.2628 19.274 23.4121 17.802 23.5236 16.712L23.5947 16H22.5185C21.5755 16 20.6712 15.6839 20.0044 15.1213C19.3376 14.5587 18.963 13.7957 18.963 13V9.00002ZM26.0693 15.088L26.0196 15.578L25.8844 16.884C25.773 17.972 25.6237 19.44 25.4767 20.96C25.1781 24.034 24.8889 27.224 24.8889 28C24.8889 28.5304 25.1386 29.0391 25.5832 29.4142C26.0277 29.7893 26.6306 30 27.2593 30C27.8879 30 28.4908 29.7893 28.9354 29.4142C29.3799 29.0391 29.6296 28.5304 29.6296 28C29.6296 27.224 29.3404 24.034 29.0418 20.96C28.8659 19.1657 28.685 17.3716 28.499 15.578L28.4492 15.09V15.088L28.4444 15V2.07003C26.4696 2.31054 24.6636 3.14354 23.3575 4.41634C22.0515 5.68913 21.3328 7.31646 21.3333 9.00002V13C21.3333 13.2652 21.4582 13.5196 21.6805 13.7071C21.9027 13.8947 22.2042 14 22.5185 14H24.8889C25.0533 14 25.2159 14.0289 25.3664 14.0848C25.5169 14.1407 25.6519 14.2225 25.7629 14.3248C25.874 14.4271 25.9585 14.5478 26.0113 14.6792C26.064 14.8106 26.0838 14.9498 26.0693 15.088Z" fill="#FF9596"/>
</svg>
