<svg width="18" height="16" viewBox="0 0 18 16" fill="none" xmlns="http://www.w3.org/2000/svg">
<path d="M16.5548 7.12944C16.6871 7.12952 16.818 7.15185 16.9402 7.19517C17.0624 7.23848 17.1734 7.30194 17.2669 7.3819C17.3604 7.46187 17.4345 7.55678 17.4851 7.66122C17.5356 7.76566 17.5616 7.87758 17.5615 7.99059C17.5614 8.1036 17.5353 8.21549 17.4846 8.31987C17.4338 8.42426 17.3596 8.51908 17.266 8.59894C17.1723 8.6788 17.0612 8.74213 16.939 8.7853C16.8167 8.82848 16.6857 8.85067 16.5534 8.85059L16.5548 7.12944ZM8.29552 8.85002C8.02834 8.85002 7.77211 8.75935 7.58319 8.59796C7.39426 8.43657 7.28813 8.21768 7.28813 7.98944C7.28813 7.7612 7.39426 7.54231 7.58319 7.38092C7.77211 7.21953 8.02834 7.12887 8.29552 7.12887V8.85002ZM8.28309 7.12887C8.55027 7.12887 8.8065 7.21953 8.99543 7.38092C9.18435 7.54231 9.29048 7.7612 9.29048 7.98944C9.29048 8.21768 9.18435 8.43657 8.99543 8.59796C8.8065 8.75935 8.55027 8.85002 8.28309 8.85002V7.12887ZM1.00739 8.85002C0.740213 8.85002 0.483979 8.75935 0.295057 8.59796C0.106135 8.43657 0 8.21768 0 7.98944C0 7.7612 0.106135 7.54231 0.295057 7.38092C0.483979 7.21953 0.740213 7.12887 1.00739 7.12887V8.85002ZM16.5534 8.85059H16.5279L16.5293 7.12944H16.5548L16.5534 8.85059ZM16.5279 8.85059H16.2294L16.2311 7.12944H16.5293L16.5279 8.85059ZM16.2294 8.85059H15.9312L15.9325 7.12944H16.2311L16.2294 8.85059ZM15.9312 8.85059L15.6327 8.8503L15.634 7.12915L15.9325 7.12944L15.9312 8.85059ZM15.6327 8.8503L15.3342 8.85002L15.3355 7.12887L15.634 7.12915L15.6327 8.8503ZM15.3342 8.85002H15.0356L15.0363 7.12887H15.3355L15.3342 8.85002ZM15.0356 8.85002H8.29552V7.12887H15.0363L15.0356 8.85002ZM8.28309 8.85002H1.00739V7.12887H8.28309V8.85002Z" fill="white"/>
<path d="M18 8.00052C18 8.31122 17.928 8.61888 17.7888 8.90592C17.6496 9.19302 17.4453 9.45375 17.1881 9.67349L10.0773 15.7479C9.68388 16.084 9.04619 16.084 8.65279 15.7479C8.25947 15.4119 8.2594 14.8671 8.65279 14.531L15.7635 8.45658C15.8337 8.39665 15.8895 8.32535 15.9275 8.24704C15.9654 8.16885 15.9852 8.08515 15.9852 8.00052C15.9852 7.91576 15.9655 7.83119 15.9275 7.75288C15.8895 7.6747 15.8336 7.60319 15.7635 7.54334L8.65279 1.46889C8.25959 1.13285 8.25959 0.588019 8.65279 0.25198C9.04615 -0.0840365 9.68388 -0.0839504 10.0773 0.25198L17.1881 6.32643C17.4452 6.54607 17.6496 6.80706 17.7888 7.094C17.9281 7.38115 18 7.68972 18 8.00052Z" fill="white"/>
</svg>
