<svg width="24" height="24" viewBox="0 0 24 24" fill="none" xmlns="http://www.w3.org/2000/svg">
<path fill-rule="evenodd" clip-rule="evenodd" d="M24.0002 12.2741C24.0002 11.4232 23.9223 10.605 23.7776 9.81958H12.2451V14.4614H18.8351C18.5513 15.9614 17.6885 17.2323 16.3917 18.0832V21.0941H20.349C22.6644 19.005 24.0002 15.9286 24.0002 12.2741Z" fill="#4285F4"/>
<path fill-rule="evenodd" clip-rule="evenodd" d="M12.2452 24C15.5514 24 18.3232 22.9254 20.3492 21.0927L16.3918 18.0818C15.2953 18.8018 13.8927 19.2273 12.2452 19.2273C9.056 19.2273 6.35655 17.1164 5.39365 14.28H1.30273V17.3891C3.31758 21.3109 7.45859 24 12.2452 24Z" fill="#34A853"/>
<path fill-rule="evenodd" clip-rule="evenodd" d="M5.39334 14.2793C5.14844 13.5593 5.00929 12.7902 5.00929 11.9993C5.00929 11.2084 5.14844 10.4393 5.39334 9.71931V6.61023H1.30242C0.4731 8.23022 0 10.0629 0 11.9993C0 13.9357 0.4731 15.7684 1.30242 17.3884L5.39334 14.2793Z" fill="#FBBC05"/>
<path fill-rule="evenodd" clip-rule="evenodd" d="M12.2452 4.77271C14.043 4.77271 15.6571 5.37816 16.9262 6.56724L20.4382 3.12544C18.3176 1.18909 15.5458 0 12.2452 0C7.45859 0 3.31758 2.68908 1.30273 6.61088L5.39365 9.71996C6.35655 6.88361 9.056 4.77271 12.2452 4.77271Z" fill="#EA4335"/>
</svg>
