<svg width="28" height="32" viewBox="0 0 28 32" fill="none" xmlns="http://www.w3.org/2000/svg">
<path d="M2 29.9201H9.384V19.3602C9.384 18.8845 9.53933 18.4859 9.85 18.1642C10.1593 17.8411 10.5427 17.6796 11 17.6796H17C17.4573 17.6796 17.8413 17.8411 18.152 18.1642C18.4613 18.4859 18.616 18.8845 18.616 19.3602V29.9201H26V11.8411C26 11.6276 25.9553 11.4335 25.866 11.2588C25.7767 11.084 25.6547 10.9315 25.5 10.8012L14.732 2.36074C14.5267 2.17493 14.2827 2.08203 14 2.08203C13.7173 2.08203 13.474 2.17493 13.27 2.36074L2.5 10.8012C2.34667 10.9343 2.22467 11.0868 2.134 11.2588C2.04333 11.4307 1.99867 11.6248 2 11.8411V29.9201ZM0 29.9201V11.8411C0 11.3087 0.114667 10.8046 0.344 10.329C0.573333 9.85341 0.889333 9.46168 1.292 9.15385L12.062 0.671824C12.626 0.223942 13.27 0 13.994 0C14.718 0 15.366 0.223942 15.938 0.671824L26.708 9.15177C27.112 9.4596 27.428 9.85202 27.656 10.329C27.8853 10.8046 28 11.3087 28 11.8411V29.9201C28 30.4775 27.8007 30.9635 27.402 31.3781C27.0033 31.7927 26.536 32 26 32H18.232C17.7733 32 17.3893 31.8391 17.08 31.5175C16.7707 31.1944 16.616 30.795 16.616 30.3194V19.7616H11.384V30.3194C11.384 30.7964 11.2293 31.1958 10.92 31.5175C10.6107 31.8391 10.2273 32 9.77 32H2C1.464 32 0.996666 31.7927 0.598 31.3781C0.199333 30.9635 0 30.4775 0 29.9201Z" fill="black"/>
</svg>
