<svg width="34" height="25" viewBox="0 0 34 25" fill="none" xmlns="http://www.w3.org/2000/svg">
<path d="M11.8601 0.472976C10.566 0.0377755 9.18811 -0.0990663 7.83178 0.0706327L7.83081 0.0696561C3.88947 0.548345 0.676263 3.63297 0.0993626 7.51399C-0.187025 9.38828 0.150186 11.3 1.05249 12.9691L0.40698 15.5072C0.344987 15.7508 0.347727 16.0063 0.415769 16.2484C0.483818 16.4904 0.614627 16.7098 0.793698 16.8861C0.97281 17.0623 1.19486 17.1892 1.43725 17.2552C1.61895 17.3046 1.80789 17.3196 1.99389 17.2982L2.17846 17.265L4.76538 16.6273C6.46023 17.5165 8.40083 17.8475 10.3025 17.5658C10.4811 17.54 10.6576 17.5073 10.8328 17.471C12.201 21.3274 15.6881 24.2725 19.8982 24.8753C20.1714 24.9144 20.4253 24.7246 20.4646 24.4515C20.5037 24.1781 20.3131 23.9242 20.0398 23.8851C16.2295 23.3394 13.0665 20.6853 11.8025 17.2132C15.0094 16.1595 17.4368 13.3356 17.8601 9.95345L17.9109 9.45052C17.9941 8.27518 17.8371 7.09372 17.449 5.97591C17.2919 5.52357 17.0974 5.08621 16.8699 4.66731C18.6452 3.76881 20.7282 3.36112 22.9255 3.62825L22.9265 3.62923C27.5014 4.17947 31.2149 7.76861 31.8865 12.2464C31.9275 12.5194 32.1818 12.7073 32.4548 12.6663C32.7279 12.6253 32.9157 12.371 32.8748 12.098C32.1353 7.16807 28.0606 3.23909 23.0457 2.63606L22.5603 2.58723C20.3098 2.40505 18.1751 2.8675 16.3406 3.8138C16.0332 3.3755 15.6864 2.96306 15.3015 2.5843C14.3326 1.63084 13.1553 0.908555 11.8601 0.472976ZM7.95288 1.06282C9.16132 0.911186 10.3893 1.03362 11.5417 1.42122C12.6941 1.80882 13.7402 2.45076 14.6003 3.2972C15.4605 4.14368 16.1117 5.17264 16.5046 6.30403C16.8484 7.29395 16.9865 8.33988 16.9128 9.3802L16.8689 9.82552L16.8679 9.82747C16.4782 12.9475 14.1465 15.5498 11.1052 16.3792C11.0747 16.3826 11.0438 16.3885 11.0134 16.3978C11.0029 16.401 10.9933 16.4066 10.9831 16.4105C10.7137 16.4793 10.4393 16.5363 10.1599 16.5765H10.158C8.40569 16.8365 6.61558 16.5138 5.07202 15.6595L4.98608 15.6214C4.89768 15.5924 4.80225 15.5891 4.71069 15.6116L1.9392 16.2933C1.8606 16.3127 1.77801 16.3116 1.69995 16.2904C1.62188 16.2691 1.55089 16.2292 1.49487 16.1741C1.43893 16.1191 1.39928 16.0511 1.37866 15.9779C1.35806 15.9046 1.35696 15.827 1.37573 15.7533L2.07006 13.0267C2.10198 12.9011 2.08357 12.7681 2.01928 12.6556C1.15265 11.1393 0.825589 9.38246 1.08862 7.66341V7.66145C1.59788 4.23544 4.44664 1.48847 7.95092 1.06282H7.95288Z" fill="white"/>
<path d="M24.8231 17.166H18.1564C17.9671 17.166 17.8089 17.102 17.6817 16.974C17.5546 16.846 17.4906 16.6873 17.4897 16.498C17.4889 16.3087 17.5529 16.1504 17.6817 16.0233C17.8106 15.8962 17.9689 15.8327 18.1564 15.8327H24.8231V9.166C24.8231 8.97667 24.8871 8.81845 25.0151 8.69134C25.1431 8.56423 25.3017 8.50023 25.4911 8.49934C25.6804 8.49845 25.8386 8.56245 25.9657 8.69134C26.0928 8.82023 26.1564 8.97845 26.1564 9.166V15.8327H32.8231C33.0124 15.8327 33.1706 15.8967 33.2977 16.0247C33.4248 16.1527 33.4888 16.3113 33.4897 16.5007C33.4906 16.69 33.4266 16.8482 33.2977 16.9753C33.1688 17.1024 33.0106 17.166 32.8231 17.166H26.1564V23.8327C26.1564 24.022 26.0924 24.1802 25.9644 24.3073C25.8364 24.4344 25.6777 24.4984 25.4884 24.4993C25.2991 24.5002 25.1408 24.4362 25.0137 24.3073C24.8866 24.1784 24.8231 24.0202 24.8231 23.8327V17.166Z" fill="white"/>
</svg>
