<svg width="28" height="34" viewBox="0 0 28 34" fill="none" xmlns="http://www.w3.org/2000/svg">
<path d="M4.2 28.1999V13.8C4.2 11.2539 5.21143 8.81208 7.01178 7.01173C8.81212 5.21138 11.2539 4.19995 13.8 4.19995C16.3461 4.19995 18.7879 5.21138 20.5882 7.01173C22.3886 8.81208 23.4 11.2539 23.4 13.8V28.1999M4.2 28.1999H23.4M4.2 28.1999H1M23.4 28.1999H26.6M12.2 32.9999H15.4" stroke="black" stroke-width="2" stroke-linecap="round" stroke-linejoin="round"/>
<path d="M13.7992 4.2C14.6829 4.2 15.3992 3.48366 15.3992 2.6C15.3992 1.71634 14.6829 1 13.7992 1C12.9156 1 12.1992 1.71634 12.1992 2.6C12.1992 3.48366 12.9156 4.2 13.7992 4.2Z" stroke="black" stroke-width="2"/>
</svg>
