<svg width="18" height="18" viewBox="0 0 18 18" fill="none" xmlns="http://www.w3.org/2000/svg">
<path d="M14.4641 7.91533V14.7728C14.4659 15.0339 14.4157 15.2929 14.3162 15.5344C14.2167 15.7759 14.0701 15.9951 13.8848 16.1792C13.6996 16.3633 13.4794 16.5086 13.2373 16.6066C12.9952 16.7046 12.736 16.7533 12.4748 16.7498H2.73858C2.47645 16.7532 2.21631 16.704 1.97348 16.6053C1.73065 16.5065 1.51007 16.3601 1.32474 16.1747C1.13942 15.9893 0.993095 15.7686 0.894413 15.5258C0.795732 15.2829 0.746687 15.0228 0.750174 14.7607V5.02498C0.747041 4.76289 0.796356 4.50282 0.895218 4.26007C0.994079 4.01732 1.14049 3.79679 1.32584 3.61145C1.51119 3.42611 1.73173 3.27971 1.9745 3.18085C2.21726 3.08199 2.47734 3.03268 2.73945 3.03581H9.59639M16.75 0.75L7.60712 9.89239M16.75 0.75H12.1781M16.75 0.75V5.32163" stroke="#0C8CE9" stroke-width="1.5" stroke-linecap="round" stroke-linejoin="round"/>
</svg>
