<svg width="269" height="62" viewBox="0 0 269 62" fill="none" xmlns="http://www.w3.org/2000/svg">
<g filter="url(#filter0_d_77_968)">
<path fill-rule="evenodd" clip-rule="evenodd" d="M152.023 36.9045C152.359 36.9045 152.611 37.0485 152.779 37.3365C152.971 37.6245 153.067 38.0085 153.067 38.4885C153.067 38.8725 152.959 39.2205 152.743 39.5325C152.551 39.8445 152.227 40.0005 151.771 40.0005C154.195 40.0005 156.15 38.8485 157.638 36.5445C158.31 37.6245 159.174 38.4765 160.23 39.1005C161.31 39.7005 162.546 40.0005 163.938 40.0005C165.138 40.0005 166.23 39.7605 167.214 39.2805C168.198 38.7765 169.038 38.0805 169.734 37.1925C170.526 39.0645 172.062 40.0005 174.342 40.0005L175.458 36.7245C175.146 36.8445 174.858 36.9045 174.594 36.9045C173.826 36.9045 173.262 36.6165 172.902 36.0405C172.566 35.4645 172.398 34.5165 172.398 33.1966V9.25684C171.87 9.08884 171.33 9.00484 170.778 9.00484C170.13 9.00484 169.578 9.08884 169.122 9.25684V23.8007C168.57 23.2487 167.886 22.8167 167.07 22.5047C166.254 22.1687 165.426 22.0007 164.586 22.0007C163.002 22.0007 161.586 22.4087 160.338 23.2247C159.114 24.0407 158.142 25.1566 157.422 26.5726C156.702 27.9886 156.342 29.6086 156.342 31.4326C156.342 31.7686 156.354 32.1046 156.378 32.4406C155.85 33.8085 155.19 34.9005 154.398 35.7165C153.63 36.5085 152.839 36.9045 152.023 36.9045ZM160.842 35.4645C160.074 34.4805 159.69 33.1365 159.69 31.4326C159.69 30.2086 159.918 29.1286 160.374 28.1926C160.83 27.2326 161.454 26.4766 162.246 25.9246C163.038 25.3726 163.95 25.0966 164.982 25.0966C165.774 25.0966 166.542 25.3006 167.286 25.7086C168.03 26.0926 168.642 26.6086 169.122 27.2566V31.2886C169.122 32.9686 168.654 34.3245 167.718 35.3565C166.806 36.3885 165.594 36.9045 164.082 36.9045C162.714 36.9045 161.634 36.4245 160.842 35.4645Z" fill="white"/>
<path d="M6.62797 29.9923C6.09997 29.8723 5.60798 29.6683 5.15199 29.3803C4.69599 29.0924 4.312 28.6964 4 28.1924L5.22399 26.3564C6.37597 24.6524 7.40796 23.5004 8.31995 22.9004C9.25594 22.3004 10.2639 22.0004 11.3439 22.0004C12.7599 22.0004 13.8759 22.5044 14.6919 23.5124C15.5319 24.4964 15.9519 25.7924 15.9519 27.4004V31.7923C15.9519 33.5443 16.1679 34.8403 16.5998 35.6803C17.0558 36.4963 17.7518 36.9043 18.6878 36.9043C19.8878 36.9043 20.7758 36.2563 21.3518 34.9603C21.9278 33.6643 22.2158 31.9003 22.2158 29.6683V27.5084C22.4318 27.4364 22.6718 27.3764 22.9358 27.3284C23.2238 27.2804 23.5118 27.2564 23.7998 27.2564C24.3998 27.2564 24.9397 27.3404 25.4197 27.5084V29.6683C25.4197 32.1883 25.6597 34.0243 26.1397 35.1763C26.6437 36.3283 27.3997 36.9043 28.4077 36.9043C29.2237 36.9043 29.8957 36.5443 30.4237 35.8243C30.9517 35.0803 31.3477 34.0723 31.6117 32.8003C31.8757 31.5043 32.0077 30.0163 32.0077 28.3364C32.0077 28.1924 32.0077 28.0484 32.0077 27.9044C30.8317 27.4724 29.9677 26.8964 29.4157 26.1764C29.5117 25.4564 29.7157 24.7844 30.0277 24.1604C30.3637 23.5124 30.7717 22.9964 31.2517 22.6124C31.7317 22.2044 32.2117 22.0004 32.6917 22.0004C33.4596 22.0004 34.0836 22.5764 34.5636 23.7284C35.0436 24.8804 35.2836 26.3684 35.2836 28.1924C35.2836 30.5203 35.0196 32.5723 34.4916 34.3483C33.9636 36.1243 33.1716 37.5162 32.1157 38.5242C31.0837 39.5082 29.8117 40.0002 28.2997 40.0002C27.3157 40.0002 26.4277 39.7482 25.6357 39.2442C24.8437 38.7402 24.2078 38.0202 23.7278 37.0843C23.1518 37.9962 22.4078 38.7162 21.4958 39.2442C20.5838 39.7482 19.5638 40.0002 18.4358 40.0002C16.6118 40.0002 15.1959 39.3162 14.1879 37.9482C13.1799 36.5803 12.6759 34.6603 12.6759 32.1883V28.0124C12.6759 27.1004 12.5439 26.3924 12.2799 25.8884C12.0399 25.3604 11.6319 25.0964 11.0559 25.0964C10.6959 25.0964 10.2879 25.2644 9.83193 25.6004C9.39993 25.9124 8.81194 26.6444 8.06795 27.7964L6.62797 29.9923Z" fill="white"/>
<path d="M43.4935 39.4962C43.2535 39.5682 42.9895 39.6282 42.7015 39.6762C42.4135 39.7242 42.1375 39.7482 41.8735 39.7482C41.3215 39.7482 40.7575 39.6642 40.1815 39.4962V27.7964C39.3175 28.0844 38.4175 28.3124 37.4816 28.4804C36.5216 28.6244 35.6576 28.6964 34.8896 28.6964C34.0496 28.6964 33.4376 28.5884 33.0536 28.3724C32.6696 28.1564 32.4776 27.7364 32.4776 27.1124C32.4776 26.6804 32.5616 26.3684 32.7296 26.1764C32.8976 25.9604 33.0896 25.8524 33.3056 25.8524H34.2776C35.2376 25.8524 36.2096 25.7564 37.1936 25.5644C38.1776 25.3724 39.1735 25.0724 40.1815 24.6644V11.4526C40.1815 9.05259 40.6855 7.20462 41.6935 5.90863C42.7255 4.61265 44.2135 3.97666 46.1575 4.00065C47.9334 4.02465 49.3134 4.69665 50.2974 6.01663C51.3054 7.33661 51.8094 9.05259 51.8094 11.1646C51.8094 13.4445 51.4254 15.6045 50.6574 17.6445C49.8894 19.6605 48.9054 21.4364 47.7054 22.9724C48.1854 22.8764 48.6654 22.8284 49.1454 22.8284C50.9454 22.8284 52.3734 23.4644 53.4294 24.7364C54.5094 26.0084 55.0494 27.7124 55.0494 29.8483V32.9443C55.0494 34.3363 55.2173 35.3443 55.5533 35.9683C55.9133 36.5923 56.5013 36.9043 57.3173 36.9043C57.7013 36.9043 57.9773 37.0603 58.1453 37.3722C58.3133 37.6602 58.3973 38.0322 58.3973 38.4882C58.3973 38.9442 58.2773 39.3042 58.0373 39.5682C57.8213 39.8562 57.5093 40.0002 57.1013 40.0002C55.3733 40.0002 54.0414 39.4482 53.1054 38.3442C52.1934 37.2163 51.7374 35.6323 51.7374 33.5923V29.7763C51.7374 28.5524 51.4614 27.6044 50.9094 26.9324C50.3814 26.2364 49.6254 25.8884 48.6414 25.8884C47.6814 25.8884 46.8175 26.2124 46.0495 26.8604C45.2815 27.4844 44.6695 28.3484 44.2135 29.4523C43.7575 30.5563 43.5175 31.8283 43.4935 33.2683V39.4962ZM43.3855 11.4166V23.1884C45.0415 21.7484 46.3255 19.9965 47.2374 17.9325C48.1494 15.8445 48.6054 13.5765 48.6054 11.1286C48.6054 9.78458 48.3774 8.7646 47.9214 8.06861C47.4894 7.34861 46.8535 6.98862 46.0135 6.98862C44.2615 6.98862 43.3855 8.4646 43.3855 11.4166Z" fill="white"/>
<path d="M57.353 36.9043C58.169 36.9043 58.961 36.5083 59.729 35.7163C60.521 34.9003 61.181 33.8083 61.709 32.4403C61.685 32.1043 61.673 31.7683 61.673 31.4323C61.673 29.6083 62.033 27.9884 62.753 26.5724C63.473 25.1564 64.445 24.0404 65.6689 23.2244C66.9169 22.4084 68.3329 22.0004 69.9169 22.0004C70.7569 22.0004 71.5849 22.1684 72.4009 22.5044C73.2168 22.8164 73.9008 23.2484 74.4528 23.8004V22.3244C74.6688 22.2524 74.9208 22.1924 75.2088 22.1444C75.4968 22.0964 75.7968 22.0724 76.1088 22.0724C76.6848 22.0724 77.2248 22.1564 77.7288 22.3244V32.8723C77.7288 34.1443 77.9208 35.1403 78.3048 35.8603C78.7128 36.5563 79.3848 36.9043 80.3208 36.9043C80.7288 36.9043 81.0048 37.0723 81.1488 37.4083C81.2927 37.7442 81.3647 38.1042 81.3647 38.4882C81.3647 38.8722 81.2568 39.2202 81.0407 39.5322C80.8488 39.8442 80.5248 40.0002 80.0688 40.0002C77.7168 40.0002 76.1448 38.9442 75.3528 36.8323C74.6568 37.8162 73.7808 38.5962 72.7249 39.1722C71.6929 39.7242 70.5409 40.0002 69.2689 40.0002C67.8769 40.0002 66.6409 39.7002 65.5609 39.1002C64.505 38.4762 63.641 37.6242 62.969 36.5443C61.481 38.8482 59.5253 40.0002 57.1013 40.0002C56.7893 40.0002 56.537 39.8562 56.3451 39.5682C56.1531 39.2802 56.0571 38.9082 56.0571 38.4522C56.0571 37.4202 56.4891 36.9043 57.353 36.9043ZM65.0209 31.4323C65.0209 33.1363 65.4049 34.4803 66.1729 35.4643C66.9649 36.4243 68.0449 36.9043 69.4129 36.9043C70.9249 36.9043 72.1369 36.3883 73.0489 35.3563C73.9848 34.3243 74.4528 32.9683 74.4528 31.2883V27.2564C73.9728 26.6084 73.3608 26.0924 72.6169 25.7084C71.8729 25.3004 71.1049 25.0964 70.3129 25.0964C69.2809 25.0964 68.3689 25.3724 67.5769 25.9244C66.7849 26.4764 66.1609 27.2324 65.7049 28.1924C65.2489 29.1283 65.0209 30.2083 65.0209 31.4323Z" fill="white"/>
<path d="M80.3098 36.9043C80.9098 36.9043 81.5938 36.7243 82.3618 36.3643C83.1538 36.0043 83.9217 35.3923 84.6657 34.5283C85.4097 33.6643 86.0217 32.5003 86.5017 31.0363C86.9817 29.5483 87.2217 27.6884 87.2217 25.4564V22.0004H84.5577C84.3897 21.6164 84.3057 21.1364 84.3057 20.5605C84.3057 19.9845 84.3897 19.5045 84.5577 19.1205H87.2217V12.7485C87.6777 12.5806 88.2297 12.4966 88.8777 12.4966C89.4537 12.4966 90.0057 12.5806 90.5337 12.7485V19.1205H95.8976C96.0896 19.5045 96.1856 19.9845 96.1856 20.5605C96.1856 21.1364 96.0896 21.6164 95.8976 22.0004H90.5337V29.4523C90.5337 31.8523 90.8937 33.7003 91.6137 34.9963C92.3576 36.2683 93.4016 36.9043 94.7456 36.9043C95.4416 36.9043 95.7896 37.4323 95.7896 38.4882C95.7896 38.9442 95.6696 39.3042 95.4296 39.5682C95.2136 39.8562 94.9016 40.0002 94.4936 40.0002C92.9336 40.0002 91.6137 39.5562 90.5337 38.6682C89.4777 37.7802 88.6977 36.5443 88.1937 34.9603C87.1857 36.6883 85.9497 37.9602 84.4857 38.7762C83.0218 39.5922 81.5458 40.0002 80.0578 40.0002C79.7458 40.0002 79.4938 39.8442 79.3018 39.5322C79.1098 39.2442 79.0138 38.8842 79.0138 38.4522C79.0138 37.9962 79.1218 37.6242 79.3378 37.3363C79.5538 37.0483 79.8778 36.9043 80.3098 36.9043Z" fill="white"/>
<path d="M94.7588 36.9043C95.2628 36.9043 95.8028 36.7483 96.3788 36.4363C96.9548 36.1243 97.4948 35.6443 97.9988 34.9963C98.5988 34.1803 99.0308 33.2443 99.2948 32.1883C99.5828 31.1323 99.7628 30.0643 99.8348 28.9844V22.5044C100.051 22.4324 100.303 22.3724 100.591 22.3244C100.879 22.2764 101.179 22.2524 101.491 22.2524C102.043 22.2524 102.583 22.3364 103.111 22.5044V32.8723C103.111 34.1443 103.303 35.1403 103.687 35.8603C104.095 36.5563 104.767 36.9043 105.703 36.9043C106.111 36.9043 106.387 37.0723 106.531 37.4083C106.675 37.7442 106.747 38.1042 106.747 38.4882C106.747 38.8722 106.639 39.2202 106.423 39.5322C106.231 39.8442 105.907 40.0002 105.451 40.0002C102.955 40.0002 101.335 38.8242 100.591 36.4723C100.255 37.0243 99.8948 37.4922 99.5108 37.8762C98.8628 38.5242 98.1068 39.0402 97.2428 39.4242C96.4028 39.8082 95.4908 40.0002 94.5068 40.0002C94.1708 40.0002 93.9188 39.8322 93.7508 39.4962C93.5588 39.1842 93.4628 38.8362 93.4628 38.4522C93.4628 38.0442 93.5708 37.6842 93.7868 37.3722C93.9788 37.0603 94.3028 36.9043 94.7588 36.9043ZM101.527 17.3205C100.855 17.3205 100.279 17.0805 99.7988 16.6005C99.3188 16.1205 99.0788 15.5445 99.0788 14.8725C99.0788 14.1525 99.3068 13.5645 99.7628 13.1085C100.243 12.6525 100.831 12.4246 101.527 12.4246C102.247 12.4246 102.835 12.6525 103.291 13.1085C103.747 13.5645 103.975 14.1525 103.975 14.8725C103.975 15.5685 103.735 16.1565 103.255 16.6365C102.799 17.0925 102.223 17.3205 101.527 17.3205Z" fill="white"/>
<path d="M105.44 40.0002C105.128 40.0002 104.876 39.8562 104.684 39.5682C104.492 39.2802 104.396 38.9082 104.396 38.4522C104.396 37.9722 104.516 37.6002 104.756 37.3363C104.972 37.0483 105.272 36.9043 105.656 36.9043C106.712 36.9043 107.72 36.4363 108.68 35.5003C109.664 34.5403 110.756 32.9443 111.956 30.7123V11.4526C111.956 9.05259 112.46 7.20462 113.468 5.90863C114.5 4.61265 115.988 3.97666 117.932 4.00065C119.708 4.02465 121.088 4.69665 122.072 6.01663C123.08 7.33661 123.584 9.05259 123.584 11.1646C123.584 12.8685 123.272 14.7645 122.648 16.8525C122.024 18.9405 121.196 20.9445 120.164 22.8644C120.404 22.8404 120.656 22.8284 120.92 22.8284C122.72 22.8284 124.148 23.4644 125.204 24.7364C126.284 26.0084 126.824 27.7124 126.824 29.8483V32.9443C126.824 34.3363 126.992 35.3443 127.328 35.9683C127.688 36.5923 128.276 36.9043 129.092 36.9043C129.476 36.9043 129.752 37.0603 129.92 37.3722C130.088 37.6602 130.172 38.0322 130.172 38.4882C130.172 38.9442 130.052 39.3042 129.812 39.5682C129.596 39.8562 129.284 40.0002 128.876 40.0002C127.148 40.0002 125.816 39.4482 124.88 38.3442C123.968 37.2163 123.512 35.6323 123.512 33.5923V29.7763C123.512 28.5524 123.236 27.6044 122.684 26.9324C122.156 26.2364 121.4 25.8884 120.416 25.8884C119.456 25.8884 118.592 26.2124 117.824 26.8604C117.056 27.4844 116.444 28.3484 115.988 29.4523C115.532 30.5563 115.292 31.8283 115.268 33.2683V39.4962C115.028 39.5682 114.764 39.6282 114.476 39.6762C114.188 39.7242 113.912 39.7482 113.648 39.7482C113.096 39.7482 112.532 39.6642 111.956 39.4962V36.5443C110.972 37.8162 109.964 38.7162 108.932 39.2442C107.924 39.7482 106.76 40.0002 105.44 40.0002ZM115.16 11.4166V25.3124C116.24 23.6564 117.164 21.9884 117.932 20.3085C118.724 18.6285 119.324 17.0085 119.732 15.4485C120.164 13.8645 120.38 12.4246 120.38 11.1286C120.38 9.78458 120.152 8.7646 119.696 8.06861C119.264 7.34861 118.628 6.98862 117.788 6.98862C116.036 6.98862 115.16 8.4646 115.16 11.4166Z" fill="white"/>
<path d="M129.141 36.9043C129.957 36.9043 130.749 36.5083 131.517 35.7163C132.309 34.9003 132.969 33.8083 133.497 32.4403C133.473 32.1043 133.461 31.7683 133.461 31.4323C133.461 29.6083 133.821 27.9884 134.541 26.5724C135.261 25.1564 136.233 24.0404 137.457 23.2244C138.705 22.4084 140.121 22.0004 141.705 22.0004C142.545 22.0004 143.373 22.1684 144.189 22.5044C145.005 22.8164 145.689 23.2484 146.241 23.8004V22.3244C146.457 22.2524 146.709 22.1924 146.997 22.1444C147.285 22.0964 147.585 22.0724 147.897 22.0724C148.473 22.0724 149.013 22.1564 149.517 22.3244V32.8723C149.517 34.1443 149.709 35.1403 150.093 35.8603C150.501 36.5563 151.173 36.9043 152.109 36.9043C152.517 36.9043 152.793 37.0723 152.937 37.4083C153.081 37.7442 153.153 38.1042 153.153 38.4882C153.153 38.8722 153.045 39.2202 152.829 39.5322C152.637 39.8442 152.313 40.0002 151.857 40.0002C149.505 40.0002 147.933 38.9442 147.141 36.8323C146.445 37.8162 145.569 38.5962 144.513 39.1722C143.481 39.7242 142.329 40.0002 141.057 40.0002C139.665 40.0002 138.429 39.7002 137.349 39.1002C136.293 38.4762 135.429 37.6242 134.757 36.5443C133.269 38.8482 131.313 40.0002 128.889 40.0002C128.577 40.0002 128.325 39.8562 128.133 39.5682C127.941 39.2802 127.845 38.9082 127.845 38.4522C127.845 37.4202 128.277 36.9043 129.141 36.9043ZM136.809 31.4323C136.809 33.1363 137.193 34.4803 137.961 35.4643C138.753 36.4243 139.833 36.9043 141.201 36.9043C142.713 36.9043 143.925 36.3883 144.837 35.3563C145.773 34.3243 146.241 32.9683 146.241 31.2883V27.2564C145.761 26.6084 145.149 26.0924 144.405 25.7084C143.661 25.3004 142.893 25.0964 142.101 25.0964C141.069 25.0964 140.157 25.3724 139.365 25.9244C138.573 26.4764 137.949 27.2324 137.493 28.1924C137.037 29.1283 136.809 30.2083 136.809 31.4323Z" fill="white"/>
<path d="M179.744 40.0002C179.072 40.0002 178.496 39.7602 178.016 39.2802C177.536 38.7762 177.296 38.1882 177.296 37.5163C177.296 36.8443 177.536 36.2683 178.016 35.7883C178.496 35.3083 179.072 35.0683 179.744 35.0683C180.416 35.0683 180.992 35.3083 181.472 35.7883C181.976 36.2683 182.228 36.8443 182.228 37.5163C182.228 38.1882 181.976 38.7762 181.472 39.2802C180.992 39.7602 180.416 40.0002 179.744 40.0002Z" fill="white"/>
<path d="M187.448 39.6402C186.896 39.4482 186.416 39.1602 186.008 38.7762C185.624 38.3682 185.372 37.8882 185.252 37.3363C185.684 36.9283 186.188 36.4123 186.764 35.7883C187.34 35.1643 187.904 34.4203 188.456 33.5563C189.008 32.6683 189.464 31.6723 189.824 30.5683C190.208 29.4643 190.4 28.2284 190.4 26.8604V22.5044C190.616 22.4324 190.868 22.3724 191.156 22.3244C191.444 22.2764 191.744 22.2524 192.056 22.2524C192.608 22.2524 193.148 22.3364 193.676 22.5044V33.1963C193.676 34.5163 193.844 35.4643 194.18 36.0403C194.54 36.6163 195.104 36.9043 195.872 36.9043C196.208 36.9043 196.46 37.0483 196.628 37.3363C196.82 37.6242 196.916 38.0082 196.916 38.4882C196.916 38.8722 196.808 39.2202 196.592 39.5322C196.4 39.8442 196.076 40.0002 195.62 40.0002C192.932 40.0002 191.276 38.7162 190.652 36.1483C189.644 37.6842 188.576 38.8482 187.448 39.6402ZM192.092 17.3205C191.42 17.3205 190.844 17.0805 190.364 16.6005C189.884 16.1205 189.644 15.5445 189.644 14.8725C189.644 14.1525 189.872 13.5645 190.328 13.1085C190.808 12.6525 191.396 12.4246 192.092 12.4246C192.812 12.4246 193.4 12.6525 193.856 13.1085C194.312 13.5645 194.54 14.1525 194.54 14.8725C194.54 15.5685 194.3 16.1565 193.82 16.6365C193.364 17.0925 192.788 17.3205 192.092 17.3205Z" fill="white"/>
<path d="M195.615 40.0002C195.303 40.0002 195.051 39.8562 194.859 39.5682C194.667 39.2802 194.571 38.9082 194.571 38.4522C194.571 37.4202 195.003 36.9043 195.867 36.9043C196.635 36.9043 197.319 36.5203 197.919 35.7523C198.543 34.9603 199.083 33.6523 199.539 31.8283L200.619 27.6164C201.627 23.8724 203.547 22.0004 206.379 22.0004C207.459 22.0004 208.371 22.3244 209.115 22.9724C209.859 23.5964 210.375 24.4484 210.663 25.5284C211.335 24.4004 212.199 23.5364 213.255 22.9364C214.311 22.3124 215.487 22.0004 216.783 22.0004C218.655 22.0004 220.095 22.6124 221.103 23.8364C222.135 25.0604 222.651 26.7764 222.651 28.9844V33.1963C222.651 34.5163 222.819 35.4643 223.155 36.0403C223.515 36.6163 224.079 36.9043 224.847 36.9043C225.183 36.9043 225.435 37.0483 225.603 37.3363C225.795 37.6242 225.891 38.0082 225.891 38.4882C225.891 38.8722 225.783 39.2202 225.567 39.5322C225.375 39.8442 225.051 40.0002 224.595 40.0002C221.115 40.0002 219.375 37.8642 219.375 33.5923V28.9844C219.375 26.3924 218.355 25.0964 216.315 25.0964C215.259 25.0964 214.323 25.5164 213.507 26.3564C212.715 27.1964 212.091 28.3604 211.635 29.8483C211.203 31.3363 210.987 33.0643 210.987 35.0323V39.4962C210.747 39.5682 210.483 39.6282 210.195 39.6762C209.907 39.7242 209.631 39.7482 209.367 39.7482C208.791 39.7482 208.251 39.6642 207.747 39.4962V28.0124C207.747 27.0764 207.627 26.3564 207.387 25.8524C207.147 25.3484 206.715 25.0964 206.091 25.0964C205.587 25.0964 205.155 25.3244 204.795 25.7804C204.435 26.2364 204.123 26.9684 203.859 27.9764L202.527 33.1603C201.903 35.5363 201.039 37.2762 199.935 38.3802C198.831 39.4602 197.391 40.0002 195.615 40.0002Z" fill="white"/>
<path d="M235.671 58C233.655 58 232.203 57.256 231.315 55.768C230.427 54.28 229.983 52.2281 229.983 49.6121V37.6602C229.167 38.5002 228.327 39.1002 227.463 39.4602C226.623 39.8202 225.675 40.0002 224.619 40.0002C224.307 40.0002 224.055 39.8562 223.863 39.5682C223.671 39.2802 223.575 38.9082 223.575 38.4522C223.575 37.9722 223.695 37.6002 223.935 37.3363C224.151 37.0483 224.451 36.9043 224.835 36.9043C225.675 36.9043 226.503 36.6283 227.319 36.0763C228.135 35.5003 229.023 34.5883 229.983 33.3403V12.4966C229.983 11.2006 230.079 10.0246 230.271 8.96859C230.487 7.88861 230.859 6.96462 231.387 6.19663C231.819 5.54864 232.371 5.02064 233.043 4.61265C233.739 4.20465 234.603 4.00065 235.635 4.00065C237.507 4.00065 238.947 4.84064 239.955 6.52062C240.963 8.2006 241.467 10.5766 241.467 13.6485C241.467 20.9684 239.223 27.3284 234.735 32.7283C236.319 33.2563 237.675 34.3843 238.803 36.1123C239.619 36.6403 240.459 36.9043 241.323 36.9043C241.635 36.9043 241.887 37.0483 242.079 37.3363C242.271 37.6242 242.367 38.0082 242.367 38.4882C242.367 38.9442 242.247 39.3042 242.007 39.5682C241.791 39.8562 241.479 40.0002 241.071 40.0002C240.903 40.0002 240.747 40.0002 240.603 40.0002C240.987 41.2002 241.275 42.5082 241.467 43.9242C241.683 45.3642 241.791 46.8761 241.791 48.4601C241.791 51.6041 241.263 53.98 240.207 55.588C239.175 57.196 237.663 58 235.671 58ZM233.187 11.7406V29.7043C234.819 27.4724 236.067 24.9764 236.931 22.2164C237.819 19.4325 238.263 16.5645 238.263 13.6125C238.263 11.4526 238.035 9.80858 237.579 8.6806C237.147 7.55261 236.499 6.98862 235.635 6.98862C234.003 6.98862 233.187 8.5726 233.187 11.7406ZM233.187 49.6121C233.187 51.4121 233.391 52.7681 233.799 53.6801C234.207 54.592 234.891 55.048 235.851 55.048C236.739 55.048 237.423 54.46 237.903 53.2841C238.383 52.1321 238.623 50.4401 238.623 48.2081C238.623 44.4162 238.107 41.3682 237.075 39.0642C236.283 38.7282 235.539 38.3322 234.843 37.8762C234.171 37.4202 233.619 36.9403 233.187 36.4363V49.6121Z" fill="white"/>
<path d="M241.323 36.9043C242.115 36.9043 242.883 36.5323 243.627 35.7883C244.395 35.0203 244.579 33.9835 244.579 32.7283C244.483 32.1523 243.627 30.6012 243.627 30.0012C243.193 28.2695 243.531 25.9168 244.579 24.882C245.199 23.4858 248.327 22.1191 250.215 22.9391C252.347 23.6074 252.791 24.6106 253.923 25.6965C254.973 24.1081 257.672 22.7152 258.963 22.8201C260.332 22.6917 262.544 23.5381 263.264 24.882C264.36 25.9418 264.586 28.7737 264.36 30.5259C263.85 32.1095 262.148 34.3783 261.014 35.6072C259.816 36.9043 259.217 37.515 257.768 38.7897C256.319 40.0645 255.644 41.032 253.923 41.4996C252.459 41.4996 251.556 40.2522 250.179 39.0642C248.803 37.8762 248.072 37.3363 247.011 36.4363C245.523 38.8122 243.543 40.0002 241.071 40.0002C240.759 40.0002 240.507 39.8562 240.315 39.5682C240.123 39.2802 240.027 38.9082 240.027 38.4522C240.027 37.4202 240.459 36.9043 241.323 36.9043ZM253.887 40.0002C255.423 40.0002 259.794 35.1256 260.706 34.0456C261.642 32.9657 263.264 30.1591 263.264 28.3591C263.264 26.6071 261.97 24.5004 260.706 24.2634C259.58 23.7518 255.608 26.4369 254.117 27.8852C252.57 26.7526 251.883 26.3865 249.209 24.2634C247.314 23.5864 244.579 26.1092 244.579 27.8852C244.579 29.6372 246.941 33.0934 247.889 34.3503C248.837 35.6072 252.261 39.2082 253.887 40.0002Z" fill="white"/>
<path d="M253.887 40.0002C255.423 40.0002 259.794 35.1256 260.706 34.0456C261.642 32.9657 263.264 30.1591 263.264 28.3591C263.264 26.6071 261.97 24.5004 260.706 24.2634C259.58 23.7518 255.608 26.4369 254.117 27.8852C252.57 26.7526 251.883 26.3865 249.209 24.2634C247.314 23.5864 244.579 26.1092 244.579 27.8852C244.579 29.6372 246.941 33.0934 247.889 34.3503C248.837 35.6072 252.261 39.2082 253.887 40.0002Z" fill="#FF0000"/>
</g>
<defs>
<filter id="filter0_d_77_968" x="0" y="0" width="268.438" height="62" filterUnits="userSpaceOnUse" color-interpolation-filters="sRGB">
<feFlood flood-opacity="0" result="BackgroundImageFix"/>
<feColorMatrix in="SourceAlpha" type="matrix" values="0 0 0 0 0 0 0 0 0 0 0 0 0 0 0 0 0 0 127 0" result="hardAlpha"/>
<feOffset/>
<feGaussianBlur stdDeviation="2"/>
<feComposite in2="hardAlpha" operator="out"/>
<feColorMatrix type="matrix" values="0 0 0 0 0 0 0 0 0 0 0 0 0 0 0 0 0 0 0.25 0"/>
<feBlend mode="normal" in2="BackgroundImageFix" result="effect1_dropShadow_77_968"/>
<feBlend mode="normal" in="SourceGraphic" in2="effect1_dropShadow_77_968" result="shape"/>
</filter>
</defs>
</svg>
